%TF.GenerationSoftware,KiCad,Pcbnew,10.0.0*%
%TF.CreationDate,2026-04-05T00:29:19-05:00*%
%TF.ProjectId,g201,67323031-2e6b-4696-9361-645f70636258,rev?*%
%TF.SameCoordinates,Original*%
%TF.FileFunction,Copper,L2,Bot*%
%TF.FilePolarity,Positive*%
%FSLAX46Y46*%
G04 Gerber Fmt 4.6, Leading zero omitted, Abs format (unit mm)*
G04 Created by KiCad (PCBNEW 10.0.0) date 2026-04-05 00:29:19*
%MOMM*%
%LPD*%
G01*
G04 APERTURE LIST*
%TA.AperFunction,ComponentPad*%
%ADD10R,1.700000X1.700000*%
%TD*%
%TA.AperFunction,ComponentPad*%
%ADD11C,1.700000*%
%TD*%
%TA.AperFunction,ComponentPad*%
%ADD12O,1.700000X1.700000*%
%TD*%
%TA.AperFunction,ComponentPad*%
%ADD13O,2.100000X1.000000*%
%TD*%
%TA.AperFunction,ComponentPad*%
%ADD14O,1.600000X1.000000*%
%TD*%
%TA.AperFunction,ViaPad*%
%ADD15C,0.600000*%
%TD*%
%TA.AperFunction,Conductor*%
%ADD16C,0.508000*%
%TD*%
%TA.AperFunction,Conductor*%
%ADD17C,0.200000*%
%TD*%
G04 APERTURE END LIST*
D10*
%TO.P,GPIOS1,1,Pin_1_1*%
%TO.N,+3.3V*%
X157500000Y-103080000D03*
D11*
%TO.P,GPIOS1,2,Pin_2_2*%
%TO.N,GPIO18*%
X157500000Y-100540000D03*
%TO.P,GPIOS1,3,Pin_3_3*%
%TO.N,GPIO19*%
X157500000Y-98000000D03*
%TO.P,GPIOS1,4,Pin_4_4*%
%TO.N,GPIO20*%
X157500000Y-95460000D03*
%TO.P,GPIOS1,5,Pin_5_5*%
%TO.N,GPIO21*%
X157500000Y-92920000D03*
%TO.P,GPIOS1,6,Pin_6_6*%
%TO.N,GPIO22*%
X157500000Y-90380000D03*
%TO.P,GPIOS1,7,Pin_7_7*%
%TO.N,GPIO23*%
X157500000Y-87840000D03*
%TO.P,GPIOS1,8,Pin_8_8*%
%TO.N,GPIO24*%
X157500000Y-85300000D03*
%TO.P,GPIOS1,9,Pin_9_9*%
%TO.N,GPIO25*%
X157500000Y-82760000D03*
%TO.P,GPIOS1,10,Pin_10_10*%
%TO.N,GND*%
X157500000Y-80220000D03*
%TD*%
D10*
%TO.P,H-Bridge1,1,Pin_1_1*%
%TO.N,+5V*%
X124340000Y-140500000D03*
D11*
%TO.P,H-Bridge1,2,Pin_2_2*%
%TO.N,IN1*%
X126880000Y-140500000D03*
%TO.P,H-Bridge1,3,Pin_3_3*%
%TO.N,IN2*%
X129420000Y-140500000D03*
%TO.P,H-Bridge1,4,Pin_4_4*%
%TO.N,IN3*%
X131960000Y-140500000D03*
%TO.P,H-Bridge1,5,Pin_5_5*%
%TO.N,IN4*%
X134500000Y-140500000D03*
%TO.P,H-Bridge1,6,Pin_6_6*%
%TO.N,EN1*%
X137040000Y-140500000D03*
%TO.P,H-Bridge1,7,Pin_7_7*%
%TO.N,EN2*%
X139580000Y-140500000D03*
%TO.P,H-Bridge1,8,Pin_8_8*%
%TO.N,unconnected-(H-Bridge1-Pin_8-Pad8)*%
X142120000Y-140500000D03*
%TO.P,H-Bridge1,9,Pin_9_9*%
%TO.N,unconnected-(H-Bridge1-Pin_9-Pad9)*%
X144660000Y-140500000D03*
%TO.P,H-Bridge1,10,Pin_10_10*%
%TO.N,GND*%
X147200000Y-140500000D03*
%TD*%
D10*
%TO.P,MyowareSensors1,1,Pin_1_1*%
%TO.N,+3.3V*%
X149000000Y-100350000D03*
D11*
%TO.P,MyowareSensors1,2,Pin_2_2*%
%TO.N,ADC0*%
X149000000Y-97810000D03*
%TO.P,MyowareSensors1,3,Pin_3_3*%
%TO.N,ADC1*%
X149000000Y-95270000D03*
%TO.P,MyowareSensors1,4,Pin_4_4*%
%TO.N,ADC2*%
X149000000Y-92730000D03*
%TO.P,MyowareSensors1,5,Pin_5_5*%
%TO.N,ADC3*%
X149000000Y-90190000D03*
%TO.P,MyowareSensors1,6,Pin_6_6*%
%TO.N,GND*%
X149000000Y-87650000D03*
%TD*%
D10*
%TO.P,J3,1,Pin_1_1*%
%TO.N,GND*%
X124460000Y-125730000D03*
D12*
%TO.P,J3,2,Pin_2_2*%
%TO.N,+3.3V*%
X124460000Y-123190000D03*
%TO.P,J3,3,Pin_3_3*%
%TO.N,SCL*%
X124460000Y-120650000D03*
%TO.P,J3,4,Pin_4_4*%
%TO.N,SDA*%
X124460000Y-118110000D03*
%TD*%
D13*
%TO.P,J1,S1,SHIELD_S1*%
%TO.N,GND*%
X129927034Y-77339000D03*
D14*
X125747034Y-77339000D03*
D13*
X129927034Y-85979000D03*
D14*
X125747034Y-85979000D03*
%TD*%
D10*
%TO.P,H-Bridge2,1,Pin_1_1*%
%TO.N,+5V*%
X157500000Y-109340000D03*
D11*
%TO.P,H-Bridge2,2,Pin_2_2*%
%TO.N,IN5*%
X157500000Y-111880000D03*
%TO.P,H-Bridge2,3,Pin_3_3*%
%TO.N,IN6*%
X157500000Y-114420000D03*
%TO.P,H-Bridge2,4,Pin_4_4*%
%TO.N,IN7*%
X157500000Y-116960000D03*
%TO.P,H-Bridge2,5,Pin_5_5*%
%TO.N,IN8*%
X157500000Y-119500000D03*
%TO.P,H-Bridge2,6,Pin_6_6*%
%TO.N,EN3*%
X157500000Y-122040000D03*
%TO.P,H-Bridge2,7,Pin_7_7*%
%TO.N,EN4*%
X157500000Y-124580000D03*
%TO.P,H-Bridge2,8,Pin_8_8*%
%TO.N,unconnected-(H-Bridge2-Pin_8-Pad8)*%
X157500000Y-127120000D03*
%TO.P,H-Bridge2,9,Pin_9_9*%
%TO.N,unconnected-(H-Bridge2-Pin_9-Pad9)*%
X157500000Y-129660000D03*
%TO.P,H-Bridge2,10,Pin_10_10*%
%TO.N,GND*%
X157500000Y-132200000D03*
%TD*%
D10*
%TO.P,J2,1,Pin_1_1*%
%TO.N,SWCLK*%
X149860000Y-122555000D03*
D12*
%TO.P,J2,2,Pin_2_2*%
%TO.N,GND*%
X149860000Y-120015000D03*
%TO.P,J2,3,Pin_3_3*%
%TO.N,SWD*%
X149860000Y-117475000D03*
%TD*%
D15*
%TO.N,+5V*%
X158500000Y-138000000D03*
%TO.N,GND*%
X123952000Y-127381000D03*
X123571000Y-111125000D03*
X140970000Y-102743000D03*
X144526000Y-130048000D03*
X143115000Y-95885000D03*
X124841000Y-97409000D03*
X123190000Y-91059000D03*
%TO.N,+5V*%
X152500000Y-109500000D03*
X138500000Y-88500000D03*
X123952000Y-131953000D03*
%TO.N,+3.3V*%
X141986000Y-117856000D03*
X125730000Y-121920000D03*
X125095000Y-96266000D03*
X129032000Y-106172000D03*
X126111000Y-109220000D03*
X151130000Y-84582000D03*
X146000000Y-106000000D03*
X136271000Y-100584000D03*
%TO.N,Net-(U3-VREG_VOUT)*%
X137736511Y-113818059D03*
X135812042Y-113823500D03*
X137519802Y-118823500D03*
%TO.N,Net-(D1-A)*%
X139192000Y-81534000D03*
X135763000Y-81534000D03*
%TO.N,Net-(J1-D+-PadA6)*%
X134620000Y-93091000D03*
X133985000Y-86360000D03*
%TO.N,Net-(J1-D--PadA7)*%
X135509000Y-86198000D03*
X136372841Y-91084159D03*
%TO.N,EN4*%
X148500000Y-133500000D03*
%TO.N,IN5*%
X151000000Y-137000000D03*
X148500000Y-137000000D03*
%TO.N,QSPI_SS*%
X131538235Y-106713765D03*
X131699000Y-112649000D03*
%TO.N,USB_DM*%
X134874000Y-102108000D03*
X137865357Y-111903254D03*
%TO.N,Net-(U3-RUN)*%
X147828000Y-124841000D03*
X138911951Y-121438049D03*
%TO.N,QSPI_SD1*%
X130356145Y-104501855D03*
X132334000Y-111760000D03*
%TO.N,QSPI_SD2*%
X132207000Y-110490000D03*
X130175000Y-105283000D03*
%TO.N,IN6*%
X154500000Y-114500000D03*
X148500000Y-136000000D03*
X151000000Y-136000000D03*
%TO.N,IN7*%
X150487000Y-135386133D03*
X147500000Y-135400000D03*
X154500000Y-117000000D03*
%TO.N,EN3*%
X151500000Y-133500000D03*
X153300000Y-122000000D03*
X139500000Y-132500000D03*
%TO.N,IN8*%
X139000000Y-134500000D03*
X153900000Y-119500000D03*
X151500000Y-134786133D03*
%TD*%
%TO.N,+5V*%
D16*
X141000000Y-138000000D02*
X158500000Y-138000000D01*
X138246000Y-135246000D02*
X141000000Y-138000000D01*
X138246000Y-132687682D02*
X138246000Y-135246000D01*
X139615682Y-131318000D02*
X138246000Y-132687682D01*
X142500000Y-131318000D02*
X139615682Y-131318000D01*
X142500000Y-131318000D02*
X151500000Y-131318000D01*
%TO.N,GND*%
X135890000Y-128905000D02*
X137033000Y-130048000D01*
X134112000Y-127127000D02*
X135890000Y-128905000D01*
X140970000Y-98030000D02*
X143115000Y-95885000D01*
X123156000Y-99094000D02*
X124841000Y-97409000D01*
X137033000Y-130048000D02*
X144526000Y-130048000D01*
X123156000Y-100076000D02*
X123156000Y-99094000D01*
X123156000Y-100076000D02*
X123156000Y-91093000D01*
X123156000Y-111540000D02*
X123156000Y-100076000D01*
X123156000Y-126585000D02*
X123156000Y-111540000D01*
X123571000Y-127000000D02*
X123698000Y-127127000D01*
X123952000Y-127381000D02*
X123571000Y-127000000D01*
X140970000Y-102743000D02*
X140970000Y-98030000D01*
X123698000Y-127127000D02*
X134112000Y-127127000D01*
X123156000Y-111540000D02*
X123571000Y-111125000D01*
X123571000Y-127000000D02*
X123156000Y-126585000D01*
X123156000Y-91093000D02*
X123190000Y-91059000D01*
%TO.N,+5V*%
X151500000Y-131318000D02*
X151638000Y-131318000D01*
X136779000Y-131318000D02*
X136144000Y-131953000D01*
X152500000Y-130456000D02*
X152500000Y-109500000D01*
X151638000Y-131318000D02*
X152500000Y-130456000D01*
X136779000Y-131318000D02*
X142500000Y-131318000D01*
X136144000Y-131953000D02*
X123952000Y-131953000D01*
X144000000Y-94000000D02*
X138500000Y-88500000D01*
X144000000Y-101000000D02*
X144000000Y-94000000D01*
X152500000Y-109500000D02*
X144000000Y-101000000D01*
%TO.N,+3.3V*%
X142367000Y-117475000D02*
X139157951Y-120684049D01*
X151130000Y-84582000D02*
X151130000Y-98220000D01*
X126965951Y-120684049D02*
X125730000Y-121920000D01*
X129032000Y-100203000D02*
X129032000Y-100584000D01*
X129032000Y-100584000D02*
X129032000Y-105791000D01*
X140657682Y-103497000D02*
X141282318Y-103497000D01*
X129032000Y-105791000D02*
X129032000Y-106299000D01*
X143500000Y-116342000D02*
X142367000Y-117475000D01*
X143500000Y-107500000D02*
X145000000Y-106000000D01*
X141282318Y-103497000D02*
X141724000Y-103055318D01*
X141724000Y-103055318D02*
X141724000Y-102430682D01*
X140262000Y-102384682D02*
X140216000Y-102430682D01*
X141724000Y-102430682D02*
X141678000Y-102384682D01*
X141986000Y-117856000D02*
X142367000Y-117475000D01*
X139157951Y-120684049D02*
X126965951Y-120684049D01*
X140262000Y-100000000D02*
X140262000Y-102384682D01*
X125095000Y-96266000D02*
X129032000Y-100203000D01*
X151130000Y-98220000D02*
X149000000Y-100350000D01*
X141678000Y-102384682D02*
X141678000Y-100178000D01*
X136855000Y-100000000D02*
X140262000Y-100000000D01*
X149000000Y-100350000D02*
X154770000Y-100350000D01*
X145000000Y-106000000D02*
X146000000Y-106000000D01*
X140216000Y-102430682D02*
X140216000Y-103055318D01*
X143500000Y-102000000D02*
X143500000Y-107500000D01*
X129032000Y-106299000D02*
X126111000Y-109220000D01*
X141678000Y-100178000D02*
X143500000Y-102000000D01*
X136271000Y-100584000D02*
X136855000Y-100000000D01*
X143500000Y-107500000D02*
X143500000Y-116342000D01*
X129032000Y-100584000D02*
X136271000Y-100584000D01*
X129032000Y-105791000D02*
X129032000Y-106172000D01*
X140216000Y-103055318D02*
X140657682Y-103497000D01*
X154770000Y-100350000D02*
X157500000Y-103080000D01*
%TO.N,Net-(U3-VREG_VOUT)*%
D17*
X137519802Y-118823500D02*
X137519802Y-114300000D01*
X136288542Y-114300000D02*
X135812042Y-113823500D01*
X137519802Y-114300000D02*
X136288542Y-114300000D01*
X137519802Y-114300000D02*
X137519802Y-114034768D01*
X137519802Y-114034768D02*
X137736511Y-113818059D01*
%TO.N,Net-(D1-A)*%
X135763000Y-81534000D02*
X139192000Y-81534000D01*
%TO.N,Net-(J1-D+-PadA6)*%
X133985000Y-86360000D02*
X133985000Y-92456000D01*
X133985000Y-92456000D02*
X134620000Y-93091000D01*
%TO.N,Net-(J1-D--PadA7)*%
X135509000Y-86198000D02*
X135509000Y-90220318D01*
X135509000Y-90220318D02*
X136372841Y-91084159D01*
%TO.N,EN4*%
X156350000Y-127596346D02*
X156350000Y-125730000D01*
X148500000Y-133500000D02*
X150000000Y-133500000D01*
X156350000Y-125730000D02*
X157500000Y-124580000D01*
X151000000Y-132500000D02*
X151446346Y-132500000D01*
X150000000Y-133500000D02*
X151000000Y-132500000D01*
X151446346Y-132500000D02*
X156350000Y-127596346D01*
%TO.N,IN5*%
X151000000Y-137000000D02*
X148500000Y-137000000D01*
%TO.N,QSPI_SS*%
X130175000Y-111125000D02*
X131699000Y-112649000D01*
X130175000Y-107442000D02*
X130175000Y-111125000D01*
X131538235Y-106713765D02*
X130810000Y-107442000D01*
X130810000Y-107442000D02*
X130175000Y-107442000D01*
%TO.N,USB_DM*%
X136068641Y-102108000D02*
X138100641Y-104140000D01*
X138008611Y-111760000D02*
X137865357Y-111903254D01*
X142494000Y-104140000D02*
X142494000Y-111760000D01*
X134874000Y-102108000D02*
X136068641Y-102108000D01*
X138100641Y-104140000D02*
X142494000Y-104140000D01*
X142494000Y-111760000D02*
X138008611Y-111760000D01*
%TO.N,Net-(U3-RUN)*%
X142314902Y-124841000D02*
X138911951Y-121438049D01*
X147828000Y-124841000D02*
X142314902Y-124841000D01*
%TO.N,QSPI_SD1*%
X133096000Y-105664000D02*
X131933855Y-104501855D01*
X131933855Y-104501855D02*
X130356145Y-104501855D01*
X132334000Y-111760000D02*
X133096000Y-110998000D01*
X133096000Y-110998000D02*
X133096000Y-105664000D01*
%TO.N,QSPI_SD2*%
X130175000Y-105283000D02*
X130955999Y-105283000D01*
X130955999Y-105283000D02*
X132207000Y-106534001D01*
X132207000Y-106534001D02*
X132207000Y-110490000D01*
%TO.N,IN6*%
X154580000Y-114420000D02*
X157500000Y-114420000D01*
X148500000Y-136000000D02*
X151000000Y-136000000D01*
X154500000Y-114500000D02*
X154580000Y-114420000D01*
%TO.N,IN7*%
X157500000Y-116960000D02*
X154540000Y-116960000D01*
X147513867Y-135386133D02*
X147500000Y-135400000D01*
X154540000Y-116960000D02*
X154500000Y-117000000D01*
X150487000Y-135386133D02*
X147513867Y-135386133D01*
%TO.N,EN3*%
X141100000Y-134100000D02*
X139500000Y-132500000D01*
X150900000Y-134100000D02*
X141100000Y-134100000D01*
X157460000Y-122000000D02*
X153300000Y-122000000D01*
X157500000Y-122040000D02*
X157460000Y-122000000D01*
X151500000Y-133500000D02*
X150900000Y-134100000D01*
%TO.N,IN8*%
X139000000Y-134500000D02*
X151213867Y-134500000D01*
X153900000Y-119500000D02*
X157500000Y-119500000D01*
X151213867Y-134500000D02*
X151500000Y-134786133D01*
%TD*%
M02*
