M48
; DRILL file KiCad 10.0.0 date 2026-04-05T00:29:32
; FORMAT={-:-/ absolute / metric / decimal}
; #@! TF.CreationDate,2026-04-05T00:29:32-05:00
; #@! TF.GenerationSoftware,Kicad,Pcbnew,10.0.0
; #@! TF.FileFunction,Plated,1,2,PTH
FMAT,2
METRIC
; #@! TA.AperFunction,Plated,PTH,ViaDrill
T1C0.300
; #@! TA.AperFunction,Plated,PTH,ComponentDrill
T2C0.600
; #@! TA.AperFunction,Plated,PTH,ComponentDrill
T3C1.000
%
G90
G05
T1
X123.19Y-91.059
X123.571Y-111.125
X123.952Y-127.381
X123.952Y-131.953
X124.841Y-97.409
X125.095Y-96.266
X125.73Y-121.92
X126.111Y-109.22
X129.032Y-106.172
X130.175Y-105.283
X130.356Y-104.502
X131.538Y-106.714
X131.699Y-112.649
X132.207Y-110.49
X132.334Y-111.76
X133.985Y-86.36
X134.62Y-93.091
X134.874Y-102.108
X135.509Y-86.198
X135.763Y-81.534
X135.812Y-113.823
X136.271Y-100.584
X136.373Y-91.084
X137.52Y-118.823
X137.737Y-113.818
X137.865Y-111.903
X138.5Y-88.5
X138.912Y-121.438
X139.0Y-134.5
X139.192Y-81.534
X139.5Y-132.5
X140.97Y-102.743
X141.986Y-117.856
X143.115Y-95.885
X144.526Y-130.048
X146.0Y-106.0
X147.5Y-135.4
X147.828Y-124.841
X148.5Y-133.5
X148.5Y-136.0
X148.5Y-137.0
X150.487Y-135.386
X151.0Y-136.0
X151.0Y-137.0
X151.13Y-84.582
X151.5Y-133.5
X151.5Y-134.786
X152.5Y-109.5
X153.3Y-122.0
X153.9Y-119.5
X154.5Y-114.5
X154.5Y-117.0
X158.5Y-138.0
T3
X124.34Y-140.5
X124.46Y-118.11
X124.46Y-120.65
X124.46Y-123.19
X124.46Y-125.73
X126.88Y-140.5
X129.42Y-140.5
X131.96Y-140.5
X134.5Y-140.5
X137.04Y-140.5
X139.58Y-140.5
X142.12Y-140.5
X144.66Y-140.5
X147.2Y-140.5
X149.0Y-87.65
X149.0Y-90.19
X149.0Y-92.73
X149.0Y-95.27
X149.0Y-97.81
X149.0Y-100.35
X149.86Y-117.475
X149.86Y-120.015
X149.86Y-122.555
X157.5Y-80.22
X157.5Y-82.76
X157.5Y-85.3
X157.5Y-87.84
X157.5Y-90.38
X157.5Y-92.92
X157.5Y-95.46
X157.5Y-98.0
X157.5Y-100.54
X157.5Y-103.08
X157.5Y-109.34
X157.5Y-111.88
X157.5Y-114.42
X157.5Y-116.96
X157.5Y-119.5
X157.5Y-122.04
X157.5Y-124.58
X157.5Y-127.12
X157.5Y-129.66
X157.5Y-132.2
T2
G00X126.047Y-77.339
M15
G01X125.447Y-77.339
M16
G05
G00X126.047Y-85.979
M15
G01X125.447Y-85.979
M16
G05
G00X130.477Y-77.339
M15
G01X129.377Y-77.339
M16
G05
G00X130.477Y-85.979
M15
G01X129.377Y-85.979
M16
G05
M30
