%TF.GenerationSoftware,KiCad,Pcbnew,10.0.0*%
%TF.CreationDate,2026-04-05T00:29:20-05:00*%
%TF.ProjectId,g201,67323031-2e6b-4696-9361-645f70636258,rev?*%
%TF.SameCoordinates,Original*%
%TF.FileFunction,Paste,Top*%
%TF.FilePolarity,Positive*%
%FSLAX46Y46*%
G04 Gerber Fmt 4.6, Leading zero omitted, Abs format (unit mm)*
G04 Created by KiCad (PCBNEW 10.0.0) date 2026-04-05 00:29:20*
%MOMM*%
%LPD*%
G01*
G04 APERTURE LIST*
G04 Aperture macros list*
%AMRoundRect*
0 Rectangle with rounded corners*
0 $1 Rounding radius*
0 $2 $3 $4 $5 $6 $7 $8 $9 X,Y pos of 4 corners*
0 Add a 4 corners polygon primitive as box body*
4,1,4,$2,$3,$4,$5,$6,$7,$8,$9,$2,$3,0*
0 Add four circle primitives for the rounded corners*
1,1,$1+$1,$2,$3*
1,1,$1+$1,$4,$5*
1,1,$1+$1,$6,$7*
1,1,$1+$1,$8,$9*
0 Add four rect primitives between the rounded corners*
20,1,$1+$1,$2,$3,$4,$5,0*
20,1,$1+$1,$4,$5,$6,$7,0*
20,1,$1+$1,$6,$7,$8,$9,0*
20,1,$1+$1,$8,$9,$2,$3,0*%
G04 Aperture macros list end*
%ADD10RoundRect,0.250000X0.262500X0.450000X-0.262500X0.450000X-0.262500X-0.450000X0.262500X-0.450000X0*%
%ADD11R,1.400000X1.200000*%
%ADD12RoundRect,0.150000X-0.150000X0.650000X-0.150000X-0.650000X0.150000X-0.650000X0.150000X0.650000X0*%
%ADD13RoundRect,0.250000X-1.000000X-0.650000X1.000000X-0.650000X1.000000X0.650000X-1.000000X0.650000X0*%
%ADD14RoundRect,0.250000X-0.250000X-0.475000X0.250000X-0.475000X0.250000X0.475000X-0.250000X0.475000X0*%
%ADD15RoundRect,0.243750X-0.243750X-0.456250X0.243750X-0.456250X0.243750X0.456250X-0.243750X0.456250X0*%
%ADD16RoundRect,0.250000X-0.450000X0.262500X-0.450000X-0.262500X0.450000X-0.262500X0.450000X0.262500X0*%
%ADD17RoundRect,0.243750X0.243750X0.456250X-0.243750X0.456250X-0.243750X-0.456250X0.243750X-0.456250X0*%
%ADD18RoundRect,0.250000X-0.262500X-0.450000X0.262500X-0.450000X0.262500X0.450000X-0.262500X0.450000X0*%
%ADD19RoundRect,0.250000X0.475000X-0.250000X0.475000X0.250000X-0.475000X0.250000X-0.475000X-0.250000X0*%
%ADD20RoundRect,0.250000X-0.475000X0.250000X-0.475000X-0.250000X0.475000X-0.250000X0.475000X0.250000X0*%
%ADD21R,1.500000X1.500000*%
%ADD22R,1.450000X0.600000*%
%ADD23R,1.450000X0.300000*%
%ADD24RoundRect,0.250000X0.450000X-0.262500X0.450000X0.262500X-0.450000X0.262500X-0.450000X-0.262500X0*%
%ADD25RoundRect,0.375000X-0.625000X-0.375000X0.625000X-0.375000X0.625000X0.375000X-0.625000X0.375000X0*%
%ADD26RoundRect,0.500000X-0.500000X-1.400000X0.500000X-1.400000X0.500000X1.400000X-0.500000X1.400000X0*%
%ADD27RoundRect,0.249999X-0.395001X-0.395001X0.395001X-0.395001X0.395001X0.395001X-0.395001X0.395001X0*%
%ADD28RoundRect,0.050000X-0.387500X-0.050000X0.387500X-0.050000X0.387500X0.050000X-0.387500X0.050000X0*%
%ADD29RoundRect,0.050000X-0.050000X-0.387500X0.050000X-0.387500X0.050000X0.387500X-0.050000X0.387500X0*%
G04 APERTURE END LIST*
D10*
%TO.C,R16*%
X157207500Y-140525000D03*
X155382500Y-140525000D03*
%TD*%
D11*
%TO.C,Y1*%
X143072000Y-127950000D03*
X145472000Y-127950000D03*
X145472000Y-126050000D03*
X143072000Y-126050000D03*
%TD*%
D12*
%TO.C,U1*%
X127254000Y-98972000D03*
X125984000Y-98972000D03*
X124714000Y-98972000D03*
X123444000Y-98972000D03*
X123444000Y-106172000D03*
X124714000Y-106172000D03*
X125984000Y-106172000D03*
X127254000Y-106172000D03*
%TD*%
D13*
%TO.C,D1*%
X135319000Y-83566000D03*
X139319000Y-83566000D03*
%TD*%
D10*
%TO.C,R14*%
X129032000Y-113919000D03*
X127207000Y-113919000D03*
%TD*%
D14*
%TO.C,C6*%
X137546000Y-95885000D03*
X139446000Y-95885000D03*
%TD*%
D15*
%TO.C,D4*%
X123571000Y-112776000D03*
X125446000Y-112776000D03*
%TD*%
D16*
%TO.C,R6*%
X133604000Y-87583000D03*
X133604000Y-89408000D03*
%TD*%
D10*
%TO.C,R13*%
X129032000Y-116078000D03*
X127207000Y-116078000D03*
%TD*%
D17*
%TO.C,D2*%
X151130000Y-114427000D03*
X149255000Y-114427000D03*
%TD*%
D16*
%TO.C,R3*%
X135890000Y-92282000D03*
X135890000Y-94107000D03*
%TD*%
D18*
%TO.C,R8*%
X137621000Y-100584000D03*
X139446000Y-100584000D03*
%TD*%
D15*
%TO.C,D5*%
X123601000Y-114935000D03*
X125476000Y-114935000D03*
%TD*%
D19*
%TO.C,C1*%
X136906000Y-80513000D03*
X136906000Y-78613000D03*
%TD*%
D20*
%TO.C,C5*%
X150241000Y-125989000D03*
X150241000Y-127889000D03*
%TD*%
D21*
%TO.C,SW1*%
X123518000Y-89408000D03*
X131318000Y-89408000D03*
%TD*%
D10*
%TO.C,R12*%
X129032000Y-111633000D03*
X127207000Y-111633000D03*
%TD*%
D16*
%TO.C,R1*%
X126619000Y-94949000D03*
X126619000Y-96774000D03*
%TD*%
D14*
%TO.C,C7*%
X137590000Y-98166000D03*
X139490000Y-98166000D03*
%TD*%
D17*
%TO.C,D3*%
X151033000Y-111760000D03*
X149158000Y-111760000D03*
%TD*%
D22*
%TO.C,J1*%
X130842034Y-78409000D03*
X130842034Y-79209000D03*
D23*
X130842034Y-80409000D03*
X130842034Y-81409000D03*
X130842034Y-81909000D03*
X130842034Y-82909000D03*
D22*
X130842034Y-84109000D03*
X130842034Y-84909000D03*
X130842034Y-84909000D03*
X130842034Y-84109000D03*
D23*
X130842034Y-83409000D03*
X130842034Y-82409000D03*
X130842034Y-80909000D03*
X130842034Y-79909000D03*
D22*
X130842034Y-79209000D03*
X130842034Y-78409000D03*
%TD*%
D10*
%TO.C,R11*%
X129032000Y-109601000D03*
X127207000Y-109601000D03*
%TD*%
D20*
%TO.C,C2*%
X123571000Y-128778000D03*
X123571000Y-130678000D03*
%TD*%
D18*
%TO.C,R9*%
X145247500Y-118110000D03*
X147072500Y-118110000D03*
%TD*%
D24*
%TO.C,R4*%
X133477000Y-94107000D03*
X133477000Y-92282000D03*
%TD*%
D19*
%TO.C,C4*%
X139700000Y-80386000D03*
X139700000Y-78486000D03*
%TD*%
D18*
%TO.C,R10*%
X145241000Y-120396000D03*
X147066000Y-120396000D03*
%TD*%
D20*
%TO.C,C9*%
X123444000Y-94874000D03*
X123444000Y-96774000D03*
%TD*%
D24*
%TO.C,R15*%
X147828000Y-127785500D03*
X147828000Y-125960500D03*
%TD*%
D14*
%TO.C,C3*%
X147833000Y-130048000D03*
X149733000Y-130048000D03*
%TD*%
D25*
%TO.C,U2*%
X142798000Y-79234000D03*
X142798000Y-81534000D03*
D26*
X149098000Y-81534000D03*
D25*
X142798000Y-83834000D03*
%TD*%
D16*
%TO.C,R5*%
X136144000Y-87583000D03*
X136144000Y-89408000D03*
%TD*%
D10*
%TO.C,R2*%
X125095000Y-92710000D03*
X123270000Y-92710000D03*
%TD*%
D18*
%TO.C,R7*%
X144987000Y-123698000D03*
X146812000Y-123698000D03*
%TD*%
D14*
%TO.C,C8*%
X137590000Y-102997000D03*
X139490000Y-102997000D03*
%TD*%
D27*
%TO.C,U3*%
X135665000Y-115523500D03*
X135665000Y-117123500D03*
X137265000Y-115523500D03*
X137265000Y-117123500D03*
D28*
X133027500Y-113723500D03*
X133027500Y-114123500D03*
X133027500Y-114523500D03*
X133027500Y-114923500D03*
X133027500Y-115323500D03*
X133027500Y-115723500D03*
X133027500Y-116123500D03*
X133027500Y-116523500D03*
X133027500Y-116923500D03*
X133027500Y-117323500D03*
X133027500Y-117723500D03*
X133027500Y-118123500D03*
X133027500Y-118523500D03*
X133027500Y-118923500D03*
D29*
X133865000Y-119761000D03*
X134265000Y-119761000D03*
X134665000Y-119761000D03*
X135065000Y-119761000D03*
X135465000Y-119761000D03*
X135865000Y-119761000D03*
X136265000Y-119761000D03*
X136665000Y-119761000D03*
X137065000Y-119761000D03*
X137465000Y-119761000D03*
X137865000Y-119761000D03*
X138265000Y-119761000D03*
X138665000Y-119761000D03*
X139065000Y-119761000D03*
D28*
X139902500Y-118923500D03*
X139902500Y-118523500D03*
X139902500Y-118123500D03*
X139902500Y-117723500D03*
X139902500Y-117323500D03*
X139902500Y-116923500D03*
X139902500Y-116523500D03*
X139902500Y-116123500D03*
X139902500Y-115723500D03*
X139902500Y-115323500D03*
X139902500Y-114923500D03*
X139902500Y-114523500D03*
X139902500Y-114123500D03*
X139902500Y-113723500D03*
D29*
X139065000Y-112886000D03*
X138665000Y-112886000D03*
X138265000Y-112886000D03*
X137865000Y-112886000D03*
X137465000Y-112886000D03*
X137065000Y-112886000D03*
X136665000Y-112886000D03*
X136265000Y-112886000D03*
X135865000Y-112886000D03*
X135465000Y-112886000D03*
X135065000Y-112886000D03*
X134665000Y-112886000D03*
X134265000Y-112886000D03*
X133865000Y-112886000D03*
%TD*%
M02*
