%TF.GenerationSoftware,KiCad,Pcbnew,10.0.0*%
%TF.CreationDate,2026-04-05T00:29:20-05:00*%
%TF.ProjectId,g201,67323031-2e6b-4696-9361-645f70636258,rev?*%
%TF.SameCoordinates,Original*%
%TF.FileFunction,Soldermask,Bot*%
%TF.FilePolarity,Negative*%
%FSLAX46Y46*%
G04 Gerber Fmt 4.6, Leading zero omitted, Abs format (unit mm)*
G04 Created by KiCad (PCBNEW 10.0.0) date 2026-04-05 00:29:20*
%MOMM*%
%LPD*%
G01*
G04 APERTURE LIST*
%ADD10R,1.700000X1.700000*%
%ADD11C,1.700000*%
%ADD12O,1.700000X1.700000*%
%ADD13C,0.650000*%
%ADD14O,2.100000X1.000000*%
%ADD15O,1.600000X1.000000*%
%ADD16C,5.300000*%
G04 APERTURE END LIST*
D10*
%TO.C,GPIOS1*%
X157500000Y-103080000D03*
D11*
X157500000Y-100540000D03*
X157500000Y-98000000D03*
X157500000Y-95460000D03*
X157500000Y-92920000D03*
X157500000Y-90380000D03*
X157500000Y-87840000D03*
X157500000Y-85300000D03*
X157500000Y-82760000D03*
X157500000Y-80220000D03*
%TD*%
D10*
%TO.C,H-Bridge1*%
X124340000Y-140500000D03*
D11*
X126880000Y-140500000D03*
X129420000Y-140500000D03*
X131960000Y-140500000D03*
X134500000Y-140500000D03*
X137040000Y-140500000D03*
X139580000Y-140500000D03*
X142120000Y-140500000D03*
X144660000Y-140500000D03*
X147200000Y-140500000D03*
%TD*%
D10*
%TO.C,MyowareSensors1*%
X149000000Y-100350000D03*
D11*
X149000000Y-97810000D03*
X149000000Y-95270000D03*
X149000000Y-92730000D03*
X149000000Y-90190000D03*
X149000000Y-87650000D03*
%TD*%
D10*
%TO.C,J3*%
X124460000Y-125730000D03*
D12*
X124460000Y-123190000D03*
X124460000Y-120650000D03*
X124460000Y-118110000D03*
%TD*%
D13*
%TO.C,J1*%
X129397034Y-78769000D03*
X129397034Y-84549000D03*
D14*
X129927034Y-77339000D03*
D15*
X125747034Y-77339000D03*
D14*
X129927034Y-85979000D03*
D15*
X125747034Y-85979000D03*
%TD*%
D16*
%TO.C,REF\u002A\u002A*%
X137668000Y-107950000D03*
%TD*%
D10*
%TO.C,H-Bridge2*%
X157500000Y-109340000D03*
D11*
X157500000Y-111880000D03*
X157500000Y-114420000D03*
X157500000Y-116960000D03*
X157500000Y-119500000D03*
X157500000Y-122040000D03*
X157500000Y-124580000D03*
X157500000Y-127120000D03*
X157500000Y-129660000D03*
X157500000Y-132200000D03*
%TD*%
D10*
%TO.C,J2*%
X149860000Y-122555000D03*
D12*
X149860000Y-120015000D03*
X149860000Y-117475000D03*
%TD*%
M02*
