%TF.GenerationSoftware,KiCad,Pcbnew,10.0.0*%
%TF.CreationDate,2026-04-05T00:29:20-05:00*%
%TF.ProjectId,g201,67323031-2e6b-4696-9361-645f70636258,rev?*%
%TF.SameCoordinates,Original*%
%TF.FileFunction,Legend,Top*%
%TF.FilePolarity,Positive*%
%FSLAX46Y46*%
G04 Gerber Fmt 4.6, Leading zero omitted, Abs format (unit mm)*
G04 Created by KiCad (PCBNEW 10.0.0) date 2026-04-05 00:29:20*
%MOMM*%
%LPD*%
G01*
G04 APERTURE LIST*
%ADD10C,0.100000*%
%ADD11C,0.150000*%
%ADD12C,0.120000*%
G04 APERTURE END LIST*
D10*
X126456169Y-118369070D02*
X126570455Y-118407165D01*
X126570455Y-118407165D02*
X126760931Y-118407165D01*
X126760931Y-118407165D02*
X126837122Y-118369070D01*
X126837122Y-118369070D02*
X126875217Y-118330974D01*
X126875217Y-118330974D02*
X126913312Y-118254784D01*
X126913312Y-118254784D02*
X126913312Y-118178593D01*
X126913312Y-118178593D02*
X126875217Y-118102403D01*
X126875217Y-118102403D02*
X126837122Y-118064308D01*
X126837122Y-118064308D02*
X126760931Y-118026212D01*
X126760931Y-118026212D02*
X126608550Y-117988117D01*
X126608550Y-117988117D02*
X126532360Y-117950022D01*
X126532360Y-117950022D02*
X126494265Y-117911927D01*
X126494265Y-117911927D02*
X126456169Y-117835736D01*
X126456169Y-117835736D02*
X126456169Y-117759546D01*
X126456169Y-117759546D02*
X126494265Y-117683355D01*
X126494265Y-117683355D02*
X126532360Y-117645260D01*
X126532360Y-117645260D02*
X126608550Y-117607165D01*
X126608550Y-117607165D02*
X126799027Y-117607165D01*
X126799027Y-117607165D02*
X126913312Y-117645260D01*
X127256170Y-118407165D02*
X127256170Y-117607165D01*
X127256170Y-117607165D02*
X127446646Y-117607165D01*
X127446646Y-117607165D02*
X127560932Y-117645260D01*
X127560932Y-117645260D02*
X127637122Y-117721450D01*
X127637122Y-117721450D02*
X127675217Y-117797641D01*
X127675217Y-117797641D02*
X127713313Y-117950022D01*
X127713313Y-117950022D02*
X127713313Y-118064308D01*
X127713313Y-118064308D02*
X127675217Y-118216689D01*
X127675217Y-118216689D02*
X127637122Y-118292879D01*
X127637122Y-118292879D02*
X127560932Y-118369070D01*
X127560932Y-118369070D02*
X127446646Y-118407165D01*
X127446646Y-118407165D02*
X127256170Y-118407165D01*
X128018074Y-118178593D02*
X128399027Y-118178593D01*
X127941884Y-118407165D02*
X128208551Y-117607165D01*
X128208551Y-117607165D02*
X128475217Y-118407165D01*
X126456169Y-120944980D02*
X126570455Y-120983075D01*
X126570455Y-120983075D02*
X126760931Y-120983075D01*
X126760931Y-120983075D02*
X126837122Y-120944980D01*
X126837122Y-120944980D02*
X126875217Y-120906884D01*
X126875217Y-120906884D02*
X126913312Y-120830694D01*
X126913312Y-120830694D02*
X126913312Y-120754503D01*
X126913312Y-120754503D02*
X126875217Y-120678313D01*
X126875217Y-120678313D02*
X126837122Y-120640218D01*
X126837122Y-120640218D02*
X126760931Y-120602122D01*
X126760931Y-120602122D02*
X126608550Y-120564027D01*
X126608550Y-120564027D02*
X126532360Y-120525932D01*
X126532360Y-120525932D02*
X126494265Y-120487837D01*
X126494265Y-120487837D02*
X126456169Y-120411646D01*
X126456169Y-120411646D02*
X126456169Y-120335456D01*
X126456169Y-120335456D02*
X126494265Y-120259265D01*
X126494265Y-120259265D02*
X126532360Y-120221170D01*
X126532360Y-120221170D02*
X126608550Y-120183075D01*
X126608550Y-120183075D02*
X126799027Y-120183075D01*
X126799027Y-120183075D02*
X126913312Y-120221170D01*
X127713313Y-120906884D02*
X127675217Y-120944980D01*
X127675217Y-120944980D02*
X127560932Y-120983075D01*
X127560932Y-120983075D02*
X127484741Y-120983075D01*
X127484741Y-120983075D02*
X127370455Y-120944980D01*
X127370455Y-120944980D02*
X127294265Y-120868789D01*
X127294265Y-120868789D02*
X127256170Y-120792599D01*
X127256170Y-120792599D02*
X127218074Y-120640218D01*
X127218074Y-120640218D02*
X127218074Y-120525932D01*
X127218074Y-120525932D02*
X127256170Y-120373551D01*
X127256170Y-120373551D02*
X127294265Y-120297360D01*
X127294265Y-120297360D02*
X127370455Y-120221170D01*
X127370455Y-120221170D02*
X127484741Y-120183075D01*
X127484741Y-120183075D02*
X127560932Y-120183075D01*
X127560932Y-120183075D02*
X127675217Y-120221170D01*
X127675217Y-120221170D02*
X127713313Y-120259265D01*
X128437122Y-120983075D02*
X128056170Y-120983075D01*
X128056170Y-120983075D02*
X128056170Y-120183075D01*
X126418074Y-122758985D02*
X126913312Y-122758985D01*
X126913312Y-122758985D02*
X126646646Y-123063747D01*
X126646646Y-123063747D02*
X126760931Y-123063747D01*
X126760931Y-123063747D02*
X126837122Y-123101842D01*
X126837122Y-123101842D02*
X126875217Y-123139937D01*
X126875217Y-123139937D02*
X126913312Y-123216128D01*
X126913312Y-123216128D02*
X126913312Y-123406604D01*
X126913312Y-123406604D02*
X126875217Y-123482794D01*
X126875217Y-123482794D02*
X126837122Y-123520890D01*
X126837122Y-123520890D02*
X126760931Y-123558985D01*
X126760931Y-123558985D02*
X126532360Y-123558985D01*
X126532360Y-123558985D02*
X126456169Y-123520890D01*
X126456169Y-123520890D02*
X126418074Y-123482794D01*
X127256170Y-123482794D02*
X127294265Y-123520890D01*
X127294265Y-123520890D02*
X127256170Y-123558985D01*
X127256170Y-123558985D02*
X127218074Y-123520890D01*
X127218074Y-123520890D02*
X127256170Y-123482794D01*
X127256170Y-123482794D02*
X127256170Y-123558985D01*
X127560931Y-122758985D02*
X128056169Y-122758985D01*
X128056169Y-122758985D02*
X127789503Y-123063747D01*
X127789503Y-123063747D02*
X127903788Y-123063747D01*
X127903788Y-123063747D02*
X127979979Y-123101842D01*
X127979979Y-123101842D02*
X128018074Y-123139937D01*
X128018074Y-123139937D02*
X128056169Y-123216128D01*
X128056169Y-123216128D02*
X128056169Y-123406604D01*
X128056169Y-123406604D02*
X128018074Y-123482794D01*
X128018074Y-123482794D02*
X127979979Y-123520890D01*
X127979979Y-123520890D02*
X127903788Y-123558985D01*
X127903788Y-123558985D02*
X127675217Y-123558985D01*
X127675217Y-123558985D02*
X127599026Y-123520890D01*
X127599026Y-123520890D02*
X127560931Y-123482794D01*
X128284741Y-122758985D02*
X128551408Y-123558985D01*
X128551408Y-123558985D02*
X128818074Y-122758985D01*
X126913312Y-125372990D02*
X126837122Y-125334895D01*
X126837122Y-125334895D02*
X126722836Y-125334895D01*
X126722836Y-125334895D02*
X126608550Y-125372990D01*
X126608550Y-125372990D02*
X126532360Y-125449180D01*
X126532360Y-125449180D02*
X126494265Y-125525371D01*
X126494265Y-125525371D02*
X126456169Y-125677752D01*
X126456169Y-125677752D02*
X126456169Y-125792038D01*
X126456169Y-125792038D02*
X126494265Y-125944419D01*
X126494265Y-125944419D02*
X126532360Y-126020609D01*
X126532360Y-126020609D02*
X126608550Y-126096800D01*
X126608550Y-126096800D02*
X126722836Y-126134895D01*
X126722836Y-126134895D02*
X126799027Y-126134895D01*
X126799027Y-126134895D02*
X126913312Y-126096800D01*
X126913312Y-126096800D02*
X126951408Y-126058704D01*
X126951408Y-126058704D02*
X126951408Y-125792038D01*
X126951408Y-125792038D02*
X126799027Y-125792038D01*
X127294265Y-126134895D02*
X127294265Y-125334895D01*
X127294265Y-125334895D02*
X127751408Y-126134895D01*
X127751408Y-126134895D02*
X127751408Y-125334895D01*
X128132360Y-126134895D02*
X128132360Y-125334895D01*
X128132360Y-125334895D02*
X128322836Y-125334895D01*
X128322836Y-125334895D02*
X128437122Y-125372990D01*
X128437122Y-125372990D02*
X128513312Y-125449180D01*
X128513312Y-125449180D02*
X128551407Y-125525371D01*
X128551407Y-125525371D02*
X128589503Y-125677752D01*
X128589503Y-125677752D02*
X128589503Y-125792038D01*
X128589503Y-125792038D02*
X128551407Y-125944419D01*
X128551407Y-125944419D02*
X128513312Y-126020609D01*
X128513312Y-126020609D02*
X128437122Y-126096800D01*
X128437122Y-126096800D02*
X128322836Y-126134895D01*
X128322836Y-126134895D02*
X128132360Y-126134895D01*
D11*
X155652142Y-142629819D02*
X155318809Y-142153628D01*
X155080714Y-142629819D02*
X155080714Y-141629819D01*
X155080714Y-141629819D02*
X155461666Y-141629819D01*
X155461666Y-141629819D02*
X155556904Y-141677438D01*
X155556904Y-141677438D02*
X155604523Y-141725057D01*
X155604523Y-141725057D02*
X155652142Y-141820295D01*
X155652142Y-141820295D02*
X155652142Y-141963152D01*
X155652142Y-141963152D02*
X155604523Y-142058390D01*
X155604523Y-142058390D02*
X155556904Y-142106009D01*
X155556904Y-142106009D02*
X155461666Y-142153628D01*
X155461666Y-142153628D02*
X155080714Y-142153628D01*
X156604523Y-142629819D02*
X156033095Y-142629819D01*
X156318809Y-142629819D02*
X156318809Y-141629819D01*
X156318809Y-141629819D02*
X156223571Y-141772676D01*
X156223571Y-141772676D02*
X156128333Y-141867914D01*
X156128333Y-141867914D02*
X156033095Y-141915533D01*
X157461666Y-141629819D02*
X157271190Y-141629819D01*
X157271190Y-141629819D02*
X157175952Y-141677438D01*
X157175952Y-141677438D02*
X157128333Y-141725057D01*
X157128333Y-141725057D02*
X157033095Y-141867914D01*
X157033095Y-141867914D02*
X156985476Y-142058390D01*
X156985476Y-142058390D02*
X156985476Y-142439342D01*
X156985476Y-142439342D02*
X157033095Y-142534580D01*
X157033095Y-142534580D02*
X157080714Y-142582200D01*
X157080714Y-142582200D02*
X157175952Y-142629819D01*
X157175952Y-142629819D02*
X157366428Y-142629819D01*
X157366428Y-142629819D02*
X157461666Y-142582200D01*
X157461666Y-142582200D02*
X157509285Y-142534580D01*
X157509285Y-142534580D02*
X157556904Y-142439342D01*
X157556904Y-142439342D02*
X157556904Y-142201247D01*
X157556904Y-142201247D02*
X157509285Y-142106009D01*
X157509285Y-142106009D02*
X157461666Y-142058390D01*
X157461666Y-142058390D02*
X157366428Y-142010771D01*
X157366428Y-142010771D02*
X157175952Y-142010771D01*
X157175952Y-142010771D02*
X157080714Y-142058390D01*
X157080714Y-142058390D02*
X157033095Y-142106009D01*
X157033095Y-142106009D02*
X156985476Y-142201247D01*
X140620809Y-125708628D02*
X140620809Y-126184819D01*
X140287476Y-125184819D02*
X140620809Y-125708628D01*
X140620809Y-125708628D02*
X140954142Y-125184819D01*
X141811285Y-126184819D02*
X141239857Y-126184819D01*
X141525571Y-126184819D02*
X141525571Y-125184819D01*
X141525571Y-125184819D02*
X141430333Y-125327676D01*
X141430333Y-125327676D02*
X141335095Y-125422914D01*
X141335095Y-125422914D02*
X141239857Y-125470533D01*
X155547619Y-104962438D02*
X155452381Y-104914819D01*
X155452381Y-104914819D02*
X155309524Y-104914819D01*
X155309524Y-104914819D02*
X155166667Y-104962438D01*
X155166667Y-104962438D02*
X155071429Y-105057676D01*
X155071429Y-105057676D02*
X155023810Y-105152914D01*
X155023810Y-105152914D02*
X154976191Y-105343390D01*
X154976191Y-105343390D02*
X154976191Y-105486247D01*
X154976191Y-105486247D02*
X155023810Y-105676723D01*
X155023810Y-105676723D02*
X155071429Y-105771961D01*
X155071429Y-105771961D02*
X155166667Y-105867200D01*
X155166667Y-105867200D02*
X155309524Y-105914819D01*
X155309524Y-105914819D02*
X155404762Y-105914819D01*
X155404762Y-105914819D02*
X155547619Y-105867200D01*
X155547619Y-105867200D02*
X155595238Y-105819580D01*
X155595238Y-105819580D02*
X155595238Y-105486247D01*
X155595238Y-105486247D02*
X155404762Y-105486247D01*
X156023810Y-105914819D02*
X156023810Y-104914819D01*
X156023810Y-104914819D02*
X156404762Y-104914819D01*
X156404762Y-104914819D02*
X156500000Y-104962438D01*
X156500000Y-104962438D02*
X156547619Y-105010057D01*
X156547619Y-105010057D02*
X156595238Y-105105295D01*
X156595238Y-105105295D02*
X156595238Y-105248152D01*
X156595238Y-105248152D02*
X156547619Y-105343390D01*
X156547619Y-105343390D02*
X156500000Y-105391009D01*
X156500000Y-105391009D02*
X156404762Y-105438628D01*
X156404762Y-105438628D02*
X156023810Y-105438628D01*
X157023810Y-105914819D02*
X157023810Y-104914819D01*
X157690476Y-104914819D02*
X157880952Y-104914819D01*
X157880952Y-104914819D02*
X157976190Y-104962438D01*
X157976190Y-104962438D02*
X158071428Y-105057676D01*
X158071428Y-105057676D02*
X158119047Y-105248152D01*
X158119047Y-105248152D02*
X158119047Y-105581485D01*
X158119047Y-105581485D02*
X158071428Y-105771961D01*
X158071428Y-105771961D02*
X157976190Y-105867200D01*
X157976190Y-105867200D02*
X157880952Y-105914819D01*
X157880952Y-105914819D02*
X157690476Y-105914819D01*
X157690476Y-105914819D02*
X157595238Y-105867200D01*
X157595238Y-105867200D02*
X157500000Y-105771961D01*
X157500000Y-105771961D02*
X157452381Y-105581485D01*
X157452381Y-105581485D02*
X157452381Y-105248152D01*
X157452381Y-105248152D02*
X157500000Y-105057676D01*
X157500000Y-105057676D02*
X157595238Y-104962438D01*
X157595238Y-104962438D02*
X157690476Y-104914819D01*
X158500000Y-105867200D02*
X158642857Y-105914819D01*
X158642857Y-105914819D02*
X158880952Y-105914819D01*
X158880952Y-105914819D02*
X158976190Y-105867200D01*
X158976190Y-105867200D02*
X159023809Y-105819580D01*
X159023809Y-105819580D02*
X159071428Y-105724342D01*
X159071428Y-105724342D02*
X159071428Y-105629104D01*
X159071428Y-105629104D02*
X159023809Y-105533866D01*
X159023809Y-105533866D02*
X158976190Y-105486247D01*
X158976190Y-105486247D02*
X158880952Y-105438628D01*
X158880952Y-105438628D02*
X158690476Y-105391009D01*
X158690476Y-105391009D02*
X158595238Y-105343390D01*
X158595238Y-105343390D02*
X158547619Y-105295771D01*
X158547619Y-105295771D02*
X158500000Y-105200533D01*
X158500000Y-105200533D02*
X158500000Y-105105295D01*
X158500000Y-105105295D02*
X158547619Y-105010057D01*
X158547619Y-105010057D02*
X158595238Y-104962438D01*
X158595238Y-104962438D02*
X158690476Y-104914819D01*
X158690476Y-104914819D02*
X158928571Y-104914819D01*
X158928571Y-104914819D02*
X159071428Y-104962438D01*
X160023809Y-105914819D02*
X159452381Y-105914819D01*
X159738095Y-105914819D02*
X159738095Y-104914819D01*
X159738095Y-104914819D02*
X159642857Y-105057676D01*
X159642857Y-105057676D02*
X159547619Y-105152914D01*
X159547619Y-105152914D02*
X159452381Y-105200533D01*
X128486819Y-103123904D02*
X129296342Y-103123904D01*
X129296342Y-103123904D02*
X129391580Y-103076285D01*
X129391580Y-103076285D02*
X129439200Y-103028666D01*
X129439200Y-103028666D02*
X129486819Y-102933428D01*
X129486819Y-102933428D02*
X129486819Y-102742952D01*
X129486819Y-102742952D02*
X129439200Y-102647714D01*
X129439200Y-102647714D02*
X129391580Y-102600095D01*
X129391580Y-102600095D02*
X129296342Y-102552476D01*
X129296342Y-102552476D02*
X128486819Y-102552476D01*
X129486819Y-101552476D02*
X129486819Y-102123904D01*
X129486819Y-101838190D02*
X128486819Y-101838190D01*
X128486819Y-101838190D02*
X128629676Y-101933428D01*
X128629676Y-101933428D02*
X128724914Y-102028666D01*
X128724914Y-102028666D02*
X128772533Y-102123904D01*
X139469905Y-87068819D02*
X139469905Y-86068819D01*
X139469905Y-86068819D02*
X139708000Y-86068819D01*
X139708000Y-86068819D02*
X139850857Y-86116438D01*
X139850857Y-86116438D02*
X139946095Y-86211676D01*
X139946095Y-86211676D02*
X139993714Y-86306914D01*
X139993714Y-86306914D02*
X140041333Y-86497390D01*
X140041333Y-86497390D02*
X140041333Y-86640247D01*
X140041333Y-86640247D02*
X139993714Y-86830723D01*
X139993714Y-86830723D02*
X139946095Y-86925961D01*
X139946095Y-86925961D02*
X139850857Y-87021200D01*
X139850857Y-87021200D02*
X139708000Y-87068819D01*
X139708000Y-87068819D02*
X139469905Y-87068819D01*
X140993714Y-87068819D02*
X140422286Y-87068819D01*
X140708000Y-87068819D02*
X140708000Y-86068819D01*
X140708000Y-86068819D02*
X140612762Y-86211676D01*
X140612762Y-86211676D02*
X140517524Y-86306914D01*
X140517524Y-86306914D02*
X140422286Y-86354533D01*
X131264819Y-114561857D02*
X130788628Y-114895190D01*
X131264819Y-115133285D02*
X130264819Y-115133285D01*
X130264819Y-115133285D02*
X130264819Y-114752333D01*
X130264819Y-114752333D02*
X130312438Y-114657095D01*
X130312438Y-114657095D02*
X130360057Y-114609476D01*
X130360057Y-114609476D02*
X130455295Y-114561857D01*
X130455295Y-114561857D02*
X130598152Y-114561857D01*
X130598152Y-114561857D02*
X130693390Y-114609476D01*
X130693390Y-114609476D02*
X130741009Y-114657095D01*
X130741009Y-114657095D02*
X130788628Y-114752333D01*
X130788628Y-114752333D02*
X130788628Y-115133285D01*
X131264819Y-113609476D02*
X131264819Y-114180904D01*
X131264819Y-113895190D02*
X130264819Y-113895190D01*
X130264819Y-113895190D02*
X130407676Y-113990428D01*
X130407676Y-113990428D02*
X130502914Y-114085666D01*
X130502914Y-114085666D02*
X130550533Y-114180904D01*
X130598152Y-112752333D02*
X131264819Y-112752333D01*
X130217200Y-112990428D02*
X130931485Y-113228523D01*
X130931485Y-113228523D02*
X130931485Y-112609476D01*
X141438333Y-97260580D02*
X141390714Y-97308200D01*
X141390714Y-97308200D02*
X141247857Y-97355819D01*
X141247857Y-97355819D02*
X141152619Y-97355819D01*
X141152619Y-97355819D02*
X141009762Y-97308200D01*
X141009762Y-97308200D02*
X140914524Y-97212961D01*
X140914524Y-97212961D02*
X140866905Y-97117723D01*
X140866905Y-97117723D02*
X140819286Y-96927247D01*
X140819286Y-96927247D02*
X140819286Y-96784390D01*
X140819286Y-96784390D02*
X140866905Y-96593914D01*
X140866905Y-96593914D02*
X140914524Y-96498676D01*
X140914524Y-96498676D02*
X141009762Y-96403438D01*
X141009762Y-96403438D02*
X141152619Y-96355819D01*
X141152619Y-96355819D02*
X141247857Y-96355819D01*
X141247857Y-96355819D02*
X141390714Y-96403438D01*
X141390714Y-96403438D02*
X141438333Y-96451057D01*
X142295476Y-96355819D02*
X142105000Y-96355819D01*
X142105000Y-96355819D02*
X142009762Y-96403438D01*
X142009762Y-96403438D02*
X141962143Y-96451057D01*
X141962143Y-96451057D02*
X141866905Y-96593914D01*
X141866905Y-96593914D02*
X141819286Y-96784390D01*
X141819286Y-96784390D02*
X141819286Y-97165342D01*
X141819286Y-97165342D02*
X141866905Y-97260580D01*
X141866905Y-97260580D02*
X141914524Y-97308200D01*
X141914524Y-97308200D02*
X142009762Y-97355819D01*
X142009762Y-97355819D02*
X142200238Y-97355819D01*
X142200238Y-97355819D02*
X142295476Y-97308200D01*
X142295476Y-97308200D02*
X142343095Y-97260580D01*
X142343095Y-97260580D02*
X142390714Y-97165342D01*
X142390714Y-97165342D02*
X142390714Y-96927247D01*
X142390714Y-96927247D02*
X142343095Y-96832009D01*
X142343095Y-96832009D02*
X142295476Y-96784390D01*
X142295476Y-96784390D02*
X142200238Y-96736771D01*
X142200238Y-96736771D02*
X142009762Y-96736771D01*
X142009762Y-96736771D02*
X141914524Y-96784390D01*
X141914524Y-96784390D02*
X141866905Y-96832009D01*
X141866905Y-96832009D02*
X141819286Y-96927247D01*
X123770405Y-110055819D02*
X123770405Y-109055819D01*
X123770405Y-109055819D02*
X124008500Y-109055819D01*
X124008500Y-109055819D02*
X124151357Y-109103438D01*
X124151357Y-109103438D02*
X124246595Y-109198676D01*
X124246595Y-109198676D02*
X124294214Y-109293914D01*
X124294214Y-109293914D02*
X124341833Y-109484390D01*
X124341833Y-109484390D02*
X124341833Y-109627247D01*
X124341833Y-109627247D02*
X124294214Y-109817723D01*
X124294214Y-109817723D02*
X124246595Y-109912961D01*
X124246595Y-109912961D02*
X124151357Y-110008200D01*
X124151357Y-110008200D02*
X124008500Y-110055819D01*
X124008500Y-110055819D02*
X123770405Y-110055819D01*
X125198976Y-109389152D02*
X125198976Y-110055819D01*
X124960881Y-109008200D02*
X124722786Y-109722485D01*
X124722786Y-109722485D02*
X125341833Y-109722485D01*
X122414819Y-144261904D02*
X121414819Y-144261904D01*
X121891009Y-144261904D02*
X121891009Y-143690476D01*
X122414819Y-143690476D02*
X121414819Y-143690476D01*
X122033866Y-143214285D02*
X122033866Y-142452381D01*
X121891009Y-141642857D02*
X121938628Y-141500000D01*
X121938628Y-141500000D02*
X121986247Y-141452381D01*
X121986247Y-141452381D02*
X122081485Y-141404762D01*
X122081485Y-141404762D02*
X122224342Y-141404762D01*
X122224342Y-141404762D02*
X122319580Y-141452381D01*
X122319580Y-141452381D02*
X122367200Y-141500000D01*
X122367200Y-141500000D02*
X122414819Y-141595238D01*
X122414819Y-141595238D02*
X122414819Y-141976190D01*
X122414819Y-141976190D02*
X121414819Y-141976190D01*
X121414819Y-141976190D02*
X121414819Y-141642857D01*
X121414819Y-141642857D02*
X121462438Y-141547619D01*
X121462438Y-141547619D02*
X121510057Y-141500000D01*
X121510057Y-141500000D02*
X121605295Y-141452381D01*
X121605295Y-141452381D02*
X121700533Y-141452381D01*
X121700533Y-141452381D02*
X121795771Y-141500000D01*
X121795771Y-141500000D02*
X121843390Y-141547619D01*
X121843390Y-141547619D02*
X121891009Y-141642857D01*
X121891009Y-141642857D02*
X121891009Y-141976190D01*
X122414819Y-140976190D02*
X121748152Y-140976190D01*
X121938628Y-140976190D02*
X121843390Y-140928571D01*
X121843390Y-140928571D02*
X121795771Y-140880952D01*
X121795771Y-140880952D02*
X121748152Y-140785714D01*
X121748152Y-140785714D02*
X121748152Y-140690476D01*
X122414819Y-140357142D02*
X121748152Y-140357142D01*
X121414819Y-140357142D02*
X121462438Y-140404761D01*
X121462438Y-140404761D02*
X121510057Y-140357142D01*
X121510057Y-140357142D02*
X121462438Y-140309523D01*
X121462438Y-140309523D02*
X121414819Y-140357142D01*
X121414819Y-140357142D02*
X121510057Y-140357142D01*
X122414819Y-139452381D02*
X121414819Y-139452381D01*
X122367200Y-139452381D02*
X122414819Y-139547619D01*
X122414819Y-139547619D02*
X122414819Y-139738095D01*
X122414819Y-139738095D02*
X122367200Y-139833333D01*
X122367200Y-139833333D02*
X122319580Y-139880952D01*
X122319580Y-139880952D02*
X122224342Y-139928571D01*
X122224342Y-139928571D02*
X121938628Y-139928571D01*
X121938628Y-139928571D02*
X121843390Y-139880952D01*
X121843390Y-139880952D02*
X121795771Y-139833333D01*
X121795771Y-139833333D02*
X121748152Y-139738095D01*
X121748152Y-139738095D02*
X121748152Y-139547619D01*
X121748152Y-139547619D02*
X121795771Y-139452381D01*
X121748152Y-138547619D02*
X122557676Y-138547619D01*
X122557676Y-138547619D02*
X122652914Y-138595238D01*
X122652914Y-138595238D02*
X122700533Y-138642857D01*
X122700533Y-138642857D02*
X122748152Y-138738095D01*
X122748152Y-138738095D02*
X122748152Y-138880952D01*
X122748152Y-138880952D02*
X122700533Y-138976190D01*
X122367200Y-138547619D02*
X122414819Y-138642857D01*
X122414819Y-138642857D02*
X122414819Y-138833333D01*
X122414819Y-138833333D02*
X122367200Y-138928571D01*
X122367200Y-138928571D02*
X122319580Y-138976190D01*
X122319580Y-138976190D02*
X122224342Y-139023809D01*
X122224342Y-139023809D02*
X121938628Y-139023809D01*
X121938628Y-139023809D02*
X121843390Y-138976190D01*
X121843390Y-138976190D02*
X121795771Y-138928571D01*
X121795771Y-138928571D02*
X121748152Y-138833333D01*
X121748152Y-138833333D02*
X121748152Y-138642857D01*
X121748152Y-138642857D02*
X121795771Y-138547619D01*
X122367200Y-137690476D02*
X122414819Y-137785714D01*
X122414819Y-137785714D02*
X122414819Y-137976190D01*
X122414819Y-137976190D02*
X122367200Y-138071428D01*
X122367200Y-138071428D02*
X122271961Y-138119047D01*
X122271961Y-138119047D02*
X121891009Y-138119047D01*
X121891009Y-138119047D02*
X121795771Y-138071428D01*
X121795771Y-138071428D02*
X121748152Y-137976190D01*
X121748152Y-137976190D02*
X121748152Y-137785714D01*
X121748152Y-137785714D02*
X121795771Y-137690476D01*
X121795771Y-137690476D02*
X121891009Y-137642857D01*
X121891009Y-137642857D02*
X121986247Y-137642857D01*
X121986247Y-137642857D02*
X122081485Y-138119047D01*
X122414819Y-136690476D02*
X122414819Y-137261904D01*
X122414819Y-136976190D02*
X121414819Y-136976190D01*
X121414819Y-136976190D02*
X121557676Y-137071428D01*
X121557676Y-137071428D02*
X121652914Y-137166666D01*
X121652914Y-137166666D02*
X121700533Y-137261904D01*
X132548333Y-86687819D02*
X132215000Y-86211628D01*
X131976905Y-86687819D02*
X131976905Y-85687819D01*
X131976905Y-85687819D02*
X132357857Y-85687819D01*
X132357857Y-85687819D02*
X132453095Y-85735438D01*
X132453095Y-85735438D02*
X132500714Y-85783057D01*
X132500714Y-85783057D02*
X132548333Y-85878295D01*
X132548333Y-85878295D02*
X132548333Y-86021152D01*
X132548333Y-86021152D02*
X132500714Y-86116390D01*
X132500714Y-86116390D02*
X132453095Y-86164009D01*
X132453095Y-86164009D02*
X132357857Y-86211628D01*
X132357857Y-86211628D02*
X131976905Y-86211628D01*
X133405476Y-85687819D02*
X133215000Y-85687819D01*
X133215000Y-85687819D02*
X133119762Y-85735438D01*
X133119762Y-85735438D02*
X133072143Y-85783057D01*
X133072143Y-85783057D02*
X132976905Y-85925914D01*
X132976905Y-85925914D02*
X132929286Y-86116390D01*
X132929286Y-86116390D02*
X132929286Y-86497342D01*
X132929286Y-86497342D02*
X132976905Y-86592580D01*
X132976905Y-86592580D02*
X133024524Y-86640200D01*
X133024524Y-86640200D02*
X133119762Y-86687819D01*
X133119762Y-86687819D02*
X133310238Y-86687819D01*
X133310238Y-86687819D02*
X133405476Y-86640200D01*
X133405476Y-86640200D02*
X133453095Y-86592580D01*
X133453095Y-86592580D02*
X133500714Y-86497342D01*
X133500714Y-86497342D02*
X133500714Y-86259247D01*
X133500714Y-86259247D02*
X133453095Y-86164009D01*
X133453095Y-86164009D02*
X133405476Y-86116390D01*
X133405476Y-86116390D02*
X133310238Y-86068771D01*
X133310238Y-86068771D02*
X133119762Y-86068771D01*
X133119762Y-86068771D02*
X133024524Y-86116390D01*
X133024524Y-86116390D02*
X132976905Y-86164009D01*
X132976905Y-86164009D02*
X132929286Y-86259247D01*
X142714285Y-103184819D02*
X142714285Y-102184819D01*
X142714285Y-102184819D02*
X143047618Y-102899104D01*
X143047618Y-102899104D02*
X143380951Y-102184819D01*
X143380951Y-102184819D02*
X143380951Y-103184819D01*
X143761904Y-102518152D02*
X143999999Y-103184819D01*
X144238094Y-102518152D02*
X143999999Y-103184819D01*
X143999999Y-103184819D02*
X143904761Y-103422914D01*
X143904761Y-103422914D02*
X143857142Y-103470533D01*
X143857142Y-103470533D02*
X143761904Y-103518152D01*
X144761904Y-103184819D02*
X144666666Y-103137200D01*
X144666666Y-103137200D02*
X144619047Y-103089580D01*
X144619047Y-103089580D02*
X144571428Y-102994342D01*
X144571428Y-102994342D02*
X144571428Y-102708628D01*
X144571428Y-102708628D02*
X144619047Y-102613390D01*
X144619047Y-102613390D02*
X144666666Y-102565771D01*
X144666666Y-102565771D02*
X144761904Y-102518152D01*
X144761904Y-102518152D02*
X144904761Y-102518152D01*
X144904761Y-102518152D02*
X144999999Y-102565771D01*
X144999999Y-102565771D02*
X145047618Y-102613390D01*
X145047618Y-102613390D02*
X145095237Y-102708628D01*
X145095237Y-102708628D02*
X145095237Y-102994342D01*
X145095237Y-102994342D02*
X145047618Y-103089580D01*
X145047618Y-103089580D02*
X144999999Y-103137200D01*
X144999999Y-103137200D02*
X144904761Y-103184819D01*
X144904761Y-103184819D02*
X144761904Y-103184819D01*
X145428571Y-102518152D02*
X145619047Y-103184819D01*
X145619047Y-103184819D02*
X145809523Y-102708628D01*
X145809523Y-102708628D02*
X145999999Y-103184819D01*
X145999999Y-103184819D02*
X146190475Y-102518152D01*
X146999999Y-103184819D02*
X146999999Y-102661009D01*
X146999999Y-102661009D02*
X146952380Y-102565771D01*
X146952380Y-102565771D02*
X146857142Y-102518152D01*
X146857142Y-102518152D02*
X146666666Y-102518152D01*
X146666666Y-102518152D02*
X146571428Y-102565771D01*
X146999999Y-103137200D02*
X146904761Y-103184819D01*
X146904761Y-103184819D02*
X146666666Y-103184819D01*
X146666666Y-103184819D02*
X146571428Y-103137200D01*
X146571428Y-103137200D02*
X146523809Y-103041961D01*
X146523809Y-103041961D02*
X146523809Y-102946723D01*
X146523809Y-102946723D02*
X146571428Y-102851485D01*
X146571428Y-102851485D02*
X146666666Y-102803866D01*
X146666666Y-102803866D02*
X146904761Y-102803866D01*
X146904761Y-102803866D02*
X146999999Y-102756247D01*
X147476190Y-103184819D02*
X147476190Y-102518152D01*
X147476190Y-102708628D02*
X147523809Y-102613390D01*
X147523809Y-102613390D02*
X147571428Y-102565771D01*
X147571428Y-102565771D02*
X147666666Y-102518152D01*
X147666666Y-102518152D02*
X147761904Y-102518152D01*
X148476190Y-103137200D02*
X148380952Y-103184819D01*
X148380952Y-103184819D02*
X148190476Y-103184819D01*
X148190476Y-103184819D02*
X148095238Y-103137200D01*
X148095238Y-103137200D02*
X148047619Y-103041961D01*
X148047619Y-103041961D02*
X148047619Y-102661009D01*
X148047619Y-102661009D02*
X148095238Y-102565771D01*
X148095238Y-102565771D02*
X148190476Y-102518152D01*
X148190476Y-102518152D02*
X148380952Y-102518152D01*
X148380952Y-102518152D02*
X148476190Y-102565771D01*
X148476190Y-102565771D02*
X148523809Y-102661009D01*
X148523809Y-102661009D02*
X148523809Y-102756247D01*
X148523809Y-102756247D02*
X148047619Y-102851485D01*
X148904762Y-103137200D02*
X149047619Y-103184819D01*
X149047619Y-103184819D02*
X149285714Y-103184819D01*
X149285714Y-103184819D02*
X149380952Y-103137200D01*
X149380952Y-103137200D02*
X149428571Y-103089580D01*
X149428571Y-103089580D02*
X149476190Y-102994342D01*
X149476190Y-102994342D02*
X149476190Y-102899104D01*
X149476190Y-102899104D02*
X149428571Y-102803866D01*
X149428571Y-102803866D02*
X149380952Y-102756247D01*
X149380952Y-102756247D02*
X149285714Y-102708628D01*
X149285714Y-102708628D02*
X149095238Y-102661009D01*
X149095238Y-102661009D02*
X149000000Y-102613390D01*
X149000000Y-102613390D02*
X148952381Y-102565771D01*
X148952381Y-102565771D02*
X148904762Y-102470533D01*
X148904762Y-102470533D02*
X148904762Y-102375295D01*
X148904762Y-102375295D02*
X148952381Y-102280057D01*
X148952381Y-102280057D02*
X149000000Y-102232438D01*
X149000000Y-102232438D02*
X149095238Y-102184819D01*
X149095238Y-102184819D02*
X149333333Y-102184819D01*
X149333333Y-102184819D02*
X149476190Y-102232438D01*
X150285714Y-103137200D02*
X150190476Y-103184819D01*
X150190476Y-103184819D02*
X150000000Y-103184819D01*
X150000000Y-103184819D02*
X149904762Y-103137200D01*
X149904762Y-103137200D02*
X149857143Y-103041961D01*
X149857143Y-103041961D02*
X149857143Y-102661009D01*
X149857143Y-102661009D02*
X149904762Y-102565771D01*
X149904762Y-102565771D02*
X150000000Y-102518152D01*
X150000000Y-102518152D02*
X150190476Y-102518152D01*
X150190476Y-102518152D02*
X150285714Y-102565771D01*
X150285714Y-102565771D02*
X150333333Y-102661009D01*
X150333333Y-102661009D02*
X150333333Y-102756247D01*
X150333333Y-102756247D02*
X149857143Y-102851485D01*
X150761905Y-102518152D02*
X150761905Y-103184819D01*
X150761905Y-102613390D02*
X150809524Y-102565771D01*
X150809524Y-102565771D02*
X150904762Y-102518152D01*
X150904762Y-102518152D02*
X151047619Y-102518152D01*
X151047619Y-102518152D02*
X151142857Y-102565771D01*
X151142857Y-102565771D02*
X151190476Y-102661009D01*
X151190476Y-102661009D02*
X151190476Y-103184819D01*
X151619048Y-103137200D02*
X151714286Y-103184819D01*
X151714286Y-103184819D02*
X151904762Y-103184819D01*
X151904762Y-103184819D02*
X152000000Y-103137200D01*
X152000000Y-103137200D02*
X152047619Y-103041961D01*
X152047619Y-103041961D02*
X152047619Y-102994342D01*
X152047619Y-102994342D02*
X152000000Y-102899104D01*
X152000000Y-102899104D02*
X151904762Y-102851485D01*
X151904762Y-102851485D02*
X151761905Y-102851485D01*
X151761905Y-102851485D02*
X151666667Y-102803866D01*
X151666667Y-102803866D02*
X151619048Y-102708628D01*
X151619048Y-102708628D02*
X151619048Y-102661009D01*
X151619048Y-102661009D02*
X151666667Y-102565771D01*
X151666667Y-102565771D02*
X151761905Y-102518152D01*
X151761905Y-102518152D02*
X151904762Y-102518152D01*
X151904762Y-102518152D02*
X152000000Y-102565771D01*
X152619048Y-103184819D02*
X152523810Y-103137200D01*
X152523810Y-103137200D02*
X152476191Y-103089580D01*
X152476191Y-103089580D02*
X152428572Y-102994342D01*
X152428572Y-102994342D02*
X152428572Y-102708628D01*
X152428572Y-102708628D02*
X152476191Y-102613390D01*
X152476191Y-102613390D02*
X152523810Y-102565771D01*
X152523810Y-102565771D02*
X152619048Y-102518152D01*
X152619048Y-102518152D02*
X152761905Y-102518152D01*
X152761905Y-102518152D02*
X152857143Y-102565771D01*
X152857143Y-102565771D02*
X152904762Y-102613390D01*
X152904762Y-102613390D02*
X152952381Y-102708628D01*
X152952381Y-102708628D02*
X152952381Y-102994342D01*
X152952381Y-102994342D02*
X152904762Y-103089580D01*
X152904762Y-103089580D02*
X152857143Y-103137200D01*
X152857143Y-103137200D02*
X152761905Y-103184819D01*
X152761905Y-103184819D02*
X152619048Y-103184819D01*
X153380953Y-103184819D02*
X153380953Y-102518152D01*
X153380953Y-102708628D02*
X153428572Y-102613390D01*
X153428572Y-102613390D02*
X153476191Y-102565771D01*
X153476191Y-102565771D02*
X153571429Y-102518152D01*
X153571429Y-102518152D02*
X153666667Y-102518152D01*
X153952382Y-103137200D02*
X154047620Y-103184819D01*
X154047620Y-103184819D02*
X154238096Y-103184819D01*
X154238096Y-103184819D02*
X154333334Y-103137200D01*
X154333334Y-103137200D02*
X154380953Y-103041961D01*
X154380953Y-103041961D02*
X154380953Y-102994342D01*
X154380953Y-102994342D02*
X154333334Y-102899104D01*
X154333334Y-102899104D02*
X154238096Y-102851485D01*
X154238096Y-102851485D02*
X154095239Y-102851485D01*
X154095239Y-102851485D02*
X154000001Y-102803866D01*
X154000001Y-102803866D02*
X153952382Y-102708628D01*
X153952382Y-102708628D02*
X153952382Y-102661009D01*
X153952382Y-102661009D02*
X154000001Y-102565771D01*
X154000001Y-102565771D02*
X154095239Y-102518152D01*
X154095239Y-102518152D02*
X154238096Y-102518152D01*
X154238096Y-102518152D02*
X154333334Y-102565771D01*
X155333334Y-103184819D02*
X154761906Y-103184819D01*
X155047620Y-103184819D02*
X155047620Y-102184819D01*
X155047620Y-102184819D02*
X154952382Y-102327676D01*
X154952382Y-102327676D02*
X154857144Y-102422914D01*
X154857144Y-102422914D02*
X154761906Y-102470533D01*
X129278142Y-118183819D02*
X128944809Y-117707628D01*
X128706714Y-118183819D02*
X128706714Y-117183819D01*
X128706714Y-117183819D02*
X129087666Y-117183819D01*
X129087666Y-117183819D02*
X129182904Y-117231438D01*
X129182904Y-117231438D02*
X129230523Y-117279057D01*
X129230523Y-117279057D02*
X129278142Y-117374295D01*
X129278142Y-117374295D02*
X129278142Y-117517152D01*
X129278142Y-117517152D02*
X129230523Y-117612390D01*
X129230523Y-117612390D02*
X129182904Y-117660009D01*
X129182904Y-117660009D02*
X129087666Y-117707628D01*
X129087666Y-117707628D02*
X128706714Y-117707628D01*
X130230523Y-118183819D02*
X129659095Y-118183819D01*
X129944809Y-118183819D02*
X129944809Y-117183819D01*
X129944809Y-117183819D02*
X129849571Y-117326676D01*
X129849571Y-117326676D02*
X129754333Y-117421914D01*
X129754333Y-117421914D02*
X129659095Y-117469533D01*
X130563857Y-117183819D02*
X131182904Y-117183819D01*
X131182904Y-117183819D02*
X130849571Y-117564771D01*
X130849571Y-117564771D02*
X130992428Y-117564771D01*
X130992428Y-117564771D02*
X131087666Y-117612390D01*
X131087666Y-117612390D02*
X131135285Y-117660009D01*
X131135285Y-117660009D02*
X131182904Y-117755247D01*
X131182904Y-117755247D02*
X131182904Y-117993342D01*
X131182904Y-117993342D02*
X131135285Y-118088580D01*
X131135285Y-118088580D02*
X131087666Y-118136200D01*
X131087666Y-118136200D02*
X130992428Y-118183819D01*
X130992428Y-118183819D02*
X130706714Y-118183819D01*
X130706714Y-118183819D02*
X130611476Y-118136200D01*
X130611476Y-118136200D02*
X130563857Y-118088580D01*
X146581905Y-114754819D02*
X146581905Y-113754819D01*
X146581905Y-113754819D02*
X146820000Y-113754819D01*
X146820000Y-113754819D02*
X146962857Y-113802438D01*
X146962857Y-113802438D02*
X147058095Y-113897676D01*
X147058095Y-113897676D02*
X147105714Y-113992914D01*
X147105714Y-113992914D02*
X147153333Y-114183390D01*
X147153333Y-114183390D02*
X147153333Y-114326247D01*
X147153333Y-114326247D02*
X147105714Y-114516723D01*
X147105714Y-114516723D02*
X147058095Y-114611961D01*
X147058095Y-114611961D02*
X146962857Y-114707200D01*
X146962857Y-114707200D02*
X146820000Y-114754819D01*
X146820000Y-114754819D02*
X146581905Y-114754819D01*
X147534286Y-113850057D02*
X147581905Y-113802438D01*
X147581905Y-113802438D02*
X147677143Y-113754819D01*
X147677143Y-113754819D02*
X147915238Y-113754819D01*
X147915238Y-113754819D02*
X148010476Y-113802438D01*
X148010476Y-113802438D02*
X148058095Y-113850057D01*
X148058095Y-113850057D02*
X148105714Y-113945295D01*
X148105714Y-113945295D02*
X148105714Y-114040533D01*
X148105714Y-114040533D02*
X148058095Y-114183390D01*
X148058095Y-114183390D02*
X147486667Y-114754819D01*
X147486667Y-114754819D02*
X148105714Y-114754819D01*
X135596333Y-96339819D02*
X135263000Y-95863628D01*
X135024905Y-96339819D02*
X135024905Y-95339819D01*
X135024905Y-95339819D02*
X135405857Y-95339819D01*
X135405857Y-95339819D02*
X135501095Y-95387438D01*
X135501095Y-95387438D02*
X135548714Y-95435057D01*
X135548714Y-95435057D02*
X135596333Y-95530295D01*
X135596333Y-95530295D02*
X135596333Y-95673152D01*
X135596333Y-95673152D02*
X135548714Y-95768390D01*
X135548714Y-95768390D02*
X135501095Y-95816009D01*
X135501095Y-95816009D02*
X135405857Y-95863628D01*
X135405857Y-95863628D02*
X135024905Y-95863628D01*
X135929667Y-95339819D02*
X136548714Y-95339819D01*
X136548714Y-95339819D02*
X136215381Y-95720771D01*
X136215381Y-95720771D02*
X136358238Y-95720771D01*
X136358238Y-95720771D02*
X136453476Y-95768390D01*
X136453476Y-95768390D02*
X136501095Y-95816009D01*
X136501095Y-95816009D02*
X136548714Y-95911247D01*
X136548714Y-95911247D02*
X136548714Y-96149342D01*
X136548714Y-96149342D02*
X136501095Y-96244580D01*
X136501095Y-96244580D02*
X136453476Y-96292200D01*
X136453476Y-96292200D02*
X136358238Y-96339819D01*
X136358238Y-96339819D02*
X136072524Y-96339819D01*
X136072524Y-96339819D02*
X135977286Y-96292200D01*
X135977286Y-96292200D02*
X135929667Y-96244580D01*
X141438333Y-100784819D02*
X141105000Y-100308628D01*
X140866905Y-100784819D02*
X140866905Y-99784819D01*
X140866905Y-99784819D02*
X141247857Y-99784819D01*
X141247857Y-99784819D02*
X141343095Y-99832438D01*
X141343095Y-99832438D02*
X141390714Y-99880057D01*
X141390714Y-99880057D02*
X141438333Y-99975295D01*
X141438333Y-99975295D02*
X141438333Y-100118152D01*
X141438333Y-100118152D02*
X141390714Y-100213390D01*
X141390714Y-100213390D02*
X141343095Y-100261009D01*
X141343095Y-100261009D02*
X141247857Y-100308628D01*
X141247857Y-100308628D02*
X140866905Y-100308628D01*
X142009762Y-100213390D02*
X141914524Y-100165771D01*
X141914524Y-100165771D02*
X141866905Y-100118152D01*
X141866905Y-100118152D02*
X141819286Y-100022914D01*
X141819286Y-100022914D02*
X141819286Y-99975295D01*
X141819286Y-99975295D02*
X141866905Y-99880057D01*
X141866905Y-99880057D02*
X141914524Y-99832438D01*
X141914524Y-99832438D02*
X142009762Y-99784819D01*
X142009762Y-99784819D02*
X142200238Y-99784819D01*
X142200238Y-99784819D02*
X142295476Y-99832438D01*
X142295476Y-99832438D02*
X142343095Y-99880057D01*
X142343095Y-99880057D02*
X142390714Y-99975295D01*
X142390714Y-99975295D02*
X142390714Y-100022914D01*
X142390714Y-100022914D02*
X142343095Y-100118152D01*
X142343095Y-100118152D02*
X142295476Y-100165771D01*
X142295476Y-100165771D02*
X142200238Y-100213390D01*
X142200238Y-100213390D02*
X142009762Y-100213390D01*
X142009762Y-100213390D02*
X141914524Y-100261009D01*
X141914524Y-100261009D02*
X141866905Y-100308628D01*
X141866905Y-100308628D02*
X141819286Y-100403866D01*
X141819286Y-100403866D02*
X141819286Y-100594342D01*
X141819286Y-100594342D02*
X141866905Y-100689580D01*
X141866905Y-100689580D02*
X141914524Y-100737200D01*
X141914524Y-100737200D02*
X142009762Y-100784819D01*
X142009762Y-100784819D02*
X142200238Y-100784819D01*
X142200238Y-100784819D02*
X142295476Y-100737200D01*
X142295476Y-100737200D02*
X142343095Y-100689580D01*
X142343095Y-100689580D02*
X142390714Y-100594342D01*
X142390714Y-100594342D02*
X142390714Y-100403866D01*
X142390714Y-100403866D02*
X142343095Y-100308628D01*
X142343095Y-100308628D02*
X142295476Y-100261009D01*
X142295476Y-100261009D02*
X142200238Y-100213390D01*
X123848905Y-111579819D02*
X123848905Y-110579819D01*
X123848905Y-110579819D02*
X124087000Y-110579819D01*
X124087000Y-110579819D02*
X124229857Y-110627438D01*
X124229857Y-110627438D02*
X124325095Y-110722676D01*
X124325095Y-110722676D02*
X124372714Y-110817914D01*
X124372714Y-110817914D02*
X124420333Y-111008390D01*
X124420333Y-111008390D02*
X124420333Y-111151247D01*
X124420333Y-111151247D02*
X124372714Y-111341723D01*
X124372714Y-111341723D02*
X124325095Y-111436961D01*
X124325095Y-111436961D02*
X124229857Y-111532200D01*
X124229857Y-111532200D02*
X124087000Y-111579819D01*
X124087000Y-111579819D02*
X123848905Y-111579819D01*
X125325095Y-110579819D02*
X124848905Y-110579819D01*
X124848905Y-110579819D02*
X124801286Y-111056009D01*
X124801286Y-111056009D02*
X124848905Y-111008390D01*
X124848905Y-111008390D02*
X124944143Y-110960771D01*
X124944143Y-110960771D02*
X125182238Y-110960771D01*
X125182238Y-110960771D02*
X125277476Y-111008390D01*
X125277476Y-111008390D02*
X125325095Y-111056009D01*
X125325095Y-111056009D02*
X125372714Y-111151247D01*
X125372714Y-111151247D02*
X125372714Y-111389342D01*
X125372714Y-111389342D02*
X125325095Y-111484580D01*
X125325095Y-111484580D02*
X125277476Y-111532200D01*
X125277476Y-111532200D02*
X125182238Y-111579819D01*
X125182238Y-111579819D02*
X124944143Y-111579819D01*
X124944143Y-111579819D02*
X124848905Y-111532200D01*
X124848905Y-111532200D02*
X124801286Y-111484580D01*
X136739333Y-77321580D02*
X136691714Y-77369200D01*
X136691714Y-77369200D02*
X136548857Y-77416819D01*
X136548857Y-77416819D02*
X136453619Y-77416819D01*
X136453619Y-77416819D02*
X136310762Y-77369200D01*
X136310762Y-77369200D02*
X136215524Y-77273961D01*
X136215524Y-77273961D02*
X136167905Y-77178723D01*
X136167905Y-77178723D02*
X136120286Y-76988247D01*
X136120286Y-76988247D02*
X136120286Y-76845390D01*
X136120286Y-76845390D02*
X136167905Y-76654914D01*
X136167905Y-76654914D02*
X136215524Y-76559676D01*
X136215524Y-76559676D02*
X136310762Y-76464438D01*
X136310762Y-76464438D02*
X136453619Y-76416819D01*
X136453619Y-76416819D02*
X136548857Y-76416819D01*
X136548857Y-76416819D02*
X136691714Y-76464438D01*
X136691714Y-76464438D02*
X136739333Y-76512057D01*
X137691714Y-77416819D02*
X137120286Y-77416819D01*
X137406000Y-77416819D02*
X137406000Y-76416819D01*
X137406000Y-76416819D02*
X137310762Y-76559676D01*
X137310762Y-76559676D02*
X137215524Y-76654914D01*
X137215524Y-76654914D02*
X137120286Y-76702533D01*
X151090333Y-129645580D02*
X151042714Y-129693200D01*
X151042714Y-129693200D02*
X150899857Y-129740819D01*
X150899857Y-129740819D02*
X150804619Y-129740819D01*
X150804619Y-129740819D02*
X150661762Y-129693200D01*
X150661762Y-129693200D02*
X150566524Y-129597961D01*
X150566524Y-129597961D02*
X150518905Y-129502723D01*
X150518905Y-129502723D02*
X150471286Y-129312247D01*
X150471286Y-129312247D02*
X150471286Y-129169390D01*
X150471286Y-129169390D02*
X150518905Y-128978914D01*
X150518905Y-128978914D02*
X150566524Y-128883676D01*
X150566524Y-128883676D02*
X150661762Y-128788438D01*
X150661762Y-128788438D02*
X150804619Y-128740819D01*
X150804619Y-128740819D02*
X150899857Y-128740819D01*
X150899857Y-128740819D02*
X151042714Y-128788438D01*
X151042714Y-128788438D02*
X151090333Y-128836057D01*
X151995095Y-128740819D02*
X151518905Y-128740819D01*
X151518905Y-128740819D02*
X151471286Y-129217009D01*
X151471286Y-129217009D02*
X151518905Y-129169390D01*
X151518905Y-129169390D02*
X151614143Y-129121771D01*
X151614143Y-129121771D02*
X151852238Y-129121771D01*
X151852238Y-129121771D02*
X151947476Y-129169390D01*
X151947476Y-129169390D02*
X151995095Y-129217009D01*
X151995095Y-129217009D02*
X152042714Y-129312247D01*
X152042714Y-129312247D02*
X152042714Y-129550342D01*
X152042714Y-129550342D02*
X151995095Y-129645580D01*
X151995095Y-129645580D02*
X151947476Y-129693200D01*
X151947476Y-129693200D02*
X151852238Y-129740819D01*
X151852238Y-129740819D02*
X151614143Y-129740819D01*
X151614143Y-129740819D02*
X151518905Y-129693200D01*
X151518905Y-129693200D02*
X151471286Y-129645580D01*
X126174667Y-89815200D02*
X126317524Y-89862819D01*
X126317524Y-89862819D02*
X126555619Y-89862819D01*
X126555619Y-89862819D02*
X126650857Y-89815200D01*
X126650857Y-89815200D02*
X126698476Y-89767580D01*
X126698476Y-89767580D02*
X126746095Y-89672342D01*
X126746095Y-89672342D02*
X126746095Y-89577104D01*
X126746095Y-89577104D02*
X126698476Y-89481866D01*
X126698476Y-89481866D02*
X126650857Y-89434247D01*
X126650857Y-89434247D02*
X126555619Y-89386628D01*
X126555619Y-89386628D02*
X126365143Y-89339009D01*
X126365143Y-89339009D02*
X126269905Y-89291390D01*
X126269905Y-89291390D02*
X126222286Y-89243771D01*
X126222286Y-89243771D02*
X126174667Y-89148533D01*
X126174667Y-89148533D02*
X126174667Y-89053295D01*
X126174667Y-89053295D02*
X126222286Y-88958057D01*
X126222286Y-88958057D02*
X126269905Y-88910438D01*
X126269905Y-88910438D02*
X126365143Y-88862819D01*
X126365143Y-88862819D02*
X126603238Y-88862819D01*
X126603238Y-88862819D02*
X126746095Y-88910438D01*
X127079429Y-88862819D02*
X127317524Y-89862819D01*
X127317524Y-89862819D02*
X127508000Y-89148533D01*
X127508000Y-89148533D02*
X127698476Y-89862819D01*
X127698476Y-89862819D02*
X127936572Y-88862819D01*
X128841333Y-89862819D02*
X128269905Y-89862819D01*
X128555619Y-89862819D02*
X128555619Y-88862819D01*
X128555619Y-88862819D02*
X128460381Y-89005676D01*
X128460381Y-89005676D02*
X128365143Y-89100914D01*
X128365143Y-89100914D02*
X128269905Y-89148533D01*
X130548142Y-110182819D02*
X130214809Y-109706628D01*
X129976714Y-110182819D02*
X129976714Y-109182819D01*
X129976714Y-109182819D02*
X130357666Y-109182819D01*
X130357666Y-109182819D02*
X130452904Y-109230438D01*
X130452904Y-109230438D02*
X130500523Y-109278057D01*
X130500523Y-109278057D02*
X130548142Y-109373295D01*
X130548142Y-109373295D02*
X130548142Y-109516152D01*
X130548142Y-109516152D02*
X130500523Y-109611390D01*
X130500523Y-109611390D02*
X130452904Y-109659009D01*
X130452904Y-109659009D02*
X130357666Y-109706628D01*
X130357666Y-109706628D02*
X129976714Y-109706628D01*
X131500523Y-110182819D02*
X130929095Y-110182819D01*
X131214809Y-110182819D02*
X131214809Y-109182819D01*
X131214809Y-109182819D02*
X131119571Y-109325676D01*
X131119571Y-109325676D02*
X131024333Y-109420914D01*
X131024333Y-109420914D02*
X130929095Y-109468533D01*
X131881476Y-109278057D02*
X131929095Y-109230438D01*
X131929095Y-109230438D02*
X132024333Y-109182819D01*
X132024333Y-109182819D02*
X132262428Y-109182819D01*
X132262428Y-109182819D02*
X132357666Y-109230438D01*
X132357666Y-109230438D02*
X132405285Y-109278057D01*
X132405285Y-109278057D02*
X132452904Y-109373295D01*
X132452904Y-109373295D02*
X132452904Y-109468533D01*
X132452904Y-109468533D02*
X132405285Y-109611390D01*
X132405285Y-109611390D02*
X131833857Y-110182819D01*
X131833857Y-110182819D02*
X132452904Y-110182819D01*
X128723819Y-96028166D02*
X128247628Y-96361499D01*
X128723819Y-96599594D02*
X127723819Y-96599594D01*
X127723819Y-96599594D02*
X127723819Y-96218642D01*
X127723819Y-96218642D02*
X127771438Y-96123404D01*
X127771438Y-96123404D02*
X127819057Y-96075785D01*
X127819057Y-96075785D02*
X127914295Y-96028166D01*
X127914295Y-96028166D02*
X128057152Y-96028166D01*
X128057152Y-96028166D02*
X128152390Y-96075785D01*
X128152390Y-96075785D02*
X128200009Y-96123404D01*
X128200009Y-96123404D02*
X128247628Y-96218642D01*
X128247628Y-96218642D02*
X128247628Y-96599594D01*
X128723819Y-95075785D02*
X128723819Y-95647213D01*
X128723819Y-95361499D02*
X127723819Y-95361499D01*
X127723819Y-95361499D02*
X127866676Y-95456737D01*
X127866676Y-95456737D02*
X127961914Y-95551975D01*
X127961914Y-95551975D02*
X128009533Y-95647213D01*
X141311333Y-98911580D02*
X141263714Y-98959200D01*
X141263714Y-98959200D02*
X141120857Y-99006819D01*
X141120857Y-99006819D02*
X141025619Y-99006819D01*
X141025619Y-99006819D02*
X140882762Y-98959200D01*
X140882762Y-98959200D02*
X140787524Y-98863961D01*
X140787524Y-98863961D02*
X140739905Y-98768723D01*
X140739905Y-98768723D02*
X140692286Y-98578247D01*
X140692286Y-98578247D02*
X140692286Y-98435390D01*
X140692286Y-98435390D02*
X140739905Y-98244914D01*
X140739905Y-98244914D02*
X140787524Y-98149676D01*
X140787524Y-98149676D02*
X140882762Y-98054438D01*
X140882762Y-98054438D02*
X141025619Y-98006819D01*
X141025619Y-98006819D02*
X141120857Y-98006819D01*
X141120857Y-98006819D02*
X141263714Y-98054438D01*
X141263714Y-98054438D02*
X141311333Y-98102057D01*
X141644667Y-98006819D02*
X142311333Y-98006819D01*
X142311333Y-98006819D02*
X141882762Y-99006819D01*
X126031666Y-127216819D02*
X126031666Y-127931104D01*
X126031666Y-127931104D02*
X125984047Y-128073961D01*
X125984047Y-128073961D02*
X125888809Y-128169200D01*
X125888809Y-128169200D02*
X125745952Y-128216819D01*
X125745952Y-128216819D02*
X125650714Y-128216819D01*
X126412619Y-127216819D02*
X127031666Y-127216819D01*
X127031666Y-127216819D02*
X126698333Y-127597771D01*
X126698333Y-127597771D02*
X126841190Y-127597771D01*
X126841190Y-127597771D02*
X126936428Y-127645390D01*
X126936428Y-127645390D02*
X126984047Y-127693009D01*
X126984047Y-127693009D02*
X127031666Y-127788247D01*
X127031666Y-127788247D02*
X127031666Y-128026342D01*
X127031666Y-128026342D02*
X126984047Y-128121580D01*
X126984047Y-128121580D02*
X126936428Y-128169200D01*
X126936428Y-128169200D02*
X126841190Y-128216819D01*
X126841190Y-128216819D02*
X126555476Y-128216819D01*
X126555476Y-128216819D02*
X126460238Y-128169200D01*
X126460238Y-128169200D02*
X126412619Y-128121580D01*
X146581905Y-112214819D02*
X146581905Y-111214819D01*
X146581905Y-111214819D02*
X146820000Y-111214819D01*
X146820000Y-111214819D02*
X146962857Y-111262438D01*
X146962857Y-111262438D02*
X147058095Y-111357676D01*
X147058095Y-111357676D02*
X147105714Y-111452914D01*
X147105714Y-111452914D02*
X147153333Y-111643390D01*
X147153333Y-111643390D02*
X147153333Y-111786247D01*
X147153333Y-111786247D02*
X147105714Y-111976723D01*
X147105714Y-111976723D02*
X147058095Y-112071961D01*
X147058095Y-112071961D02*
X146962857Y-112167200D01*
X146962857Y-112167200D02*
X146820000Y-112214819D01*
X146820000Y-112214819D02*
X146581905Y-112214819D01*
X147486667Y-111214819D02*
X148105714Y-111214819D01*
X148105714Y-111214819D02*
X147772381Y-111595771D01*
X147772381Y-111595771D02*
X147915238Y-111595771D01*
X147915238Y-111595771D02*
X148010476Y-111643390D01*
X148010476Y-111643390D02*
X148058095Y-111691009D01*
X148058095Y-111691009D02*
X148105714Y-111786247D01*
X148105714Y-111786247D02*
X148105714Y-112024342D01*
X148105714Y-112024342D02*
X148058095Y-112119580D01*
X148058095Y-112119580D02*
X148010476Y-112167200D01*
X148010476Y-112167200D02*
X147915238Y-112214819D01*
X147915238Y-112214819D02*
X147629524Y-112214819D01*
X147629524Y-112214819D02*
X147534286Y-112167200D01*
X147534286Y-112167200D02*
X147486667Y-112119580D01*
X131896853Y-81992333D02*
X132611138Y-81992333D01*
X132611138Y-81992333D02*
X132753995Y-82039952D01*
X132753995Y-82039952D02*
X132849234Y-82135190D01*
X132849234Y-82135190D02*
X132896853Y-82278047D01*
X132896853Y-82278047D02*
X132896853Y-82373285D01*
X132896853Y-80992333D02*
X132896853Y-81563761D01*
X132896853Y-81278047D02*
X131896853Y-81278047D01*
X131896853Y-81278047D02*
X132039710Y-81373285D01*
X132039710Y-81373285D02*
X132134948Y-81468523D01*
X132134948Y-81468523D02*
X132182567Y-81563761D01*
X130548142Y-112087819D02*
X130214809Y-111611628D01*
X129976714Y-112087819D02*
X129976714Y-111087819D01*
X129976714Y-111087819D02*
X130357666Y-111087819D01*
X130357666Y-111087819D02*
X130452904Y-111135438D01*
X130452904Y-111135438D02*
X130500523Y-111183057D01*
X130500523Y-111183057D02*
X130548142Y-111278295D01*
X130548142Y-111278295D02*
X130548142Y-111421152D01*
X130548142Y-111421152D02*
X130500523Y-111516390D01*
X130500523Y-111516390D02*
X130452904Y-111564009D01*
X130452904Y-111564009D02*
X130357666Y-111611628D01*
X130357666Y-111611628D02*
X129976714Y-111611628D01*
X131500523Y-112087819D02*
X130929095Y-112087819D01*
X131214809Y-112087819D02*
X131214809Y-111087819D01*
X131214809Y-111087819D02*
X131119571Y-111230676D01*
X131119571Y-111230676D02*
X131024333Y-111325914D01*
X131024333Y-111325914D02*
X130929095Y-111373533D01*
X132452904Y-112087819D02*
X131881476Y-112087819D01*
X132167190Y-112087819D02*
X132167190Y-111087819D01*
X132167190Y-111087819D02*
X132071952Y-111230676D01*
X132071952Y-111230676D02*
X131976714Y-111325914D01*
X131976714Y-111325914D02*
X131881476Y-111373533D01*
X125610580Y-129894666D02*
X125658200Y-129942285D01*
X125658200Y-129942285D02*
X125705819Y-130085142D01*
X125705819Y-130085142D02*
X125705819Y-130180380D01*
X125705819Y-130180380D02*
X125658200Y-130323237D01*
X125658200Y-130323237D02*
X125562961Y-130418475D01*
X125562961Y-130418475D02*
X125467723Y-130466094D01*
X125467723Y-130466094D02*
X125277247Y-130513713D01*
X125277247Y-130513713D02*
X125134390Y-130513713D01*
X125134390Y-130513713D02*
X124943914Y-130466094D01*
X124943914Y-130466094D02*
X124848676Y-130418475D01*
X124848676Y-130418475D02*
X124753438Y-130323237D01*
X124753438Y-130323237D02*
X124705819Y-130180380D01*
X124705819Y-130180380D02*
X124705819Y-130085142D01*
X124705819Y-130085142D02*
X124753438Y-129942285D01*
X124753438Y-129942285D02*
X124801057Y-129894666D01*
X124801057Y-129513713D02*
X124753438Y-129466094D01*
X124753438Y-129466094D02*
X124705819Y-129370856D01*
X124705819Y-129370856D02*
X124705819Y-129132761D01*
X124705819Y-129132761D02*
X124753438Y-129037523D01*
X124753438Y-129037523D02*
X124801057Y-128989904D01*
X124801057Y-128989904D02*
X124896295Y-128942285D01*
X124896295Y-128942285D02*
X124991533Y-128942285D01*
X124991533Y-128942285D02*
X125134390Y-128989904D01*
X125134390Y-128989904D02*
X125705819Y-129561332D01*
X125705819Y-129561332D02*
X125705819Y-128942285D01*
X143216333Y-118691819D02*
X142883000Y-118215628D01*
X142644905Y-118691819D02*
X142644905Y-117691819D01*
X142644905Y-117691819D02*
X143025857Y-117691819D01*
X143025857Y-117691819D02*
X143121095Y-117739438D01*
X143121095Y-117739438D02*
X143168714Y-117787057D01*
X143168714Y-117787057D02*
X143216333Y-117882295D01*
X143216333Y-117882295D02*
X143216333Y-118025152D01*
X143216333Y-118025152D02*
X143168714Y-118120390D01*
X143168714Y-118120390D02*
X143121095Y-118168009D01*
X143121095Y-118168009D02*
X143025857Y-118215628D01*
X143025857Y-118215628D02*
X142644905Y-118215628D01*
X143692524Y-118691819D02*
X143883000Y-118691819D01*
X143883000Y-118691819D02*
X143978238Y-118644200D01*
X143978238Y-118644200D02*
X144025857Y-118596580D01*
X144025857Y-118596580D02*
X144121095Y-118453723D01*
X144121095Y-118453723D02*
X144168714Y-118263247D01*
X144168714Y-118263247D02*
X144168714Y-117882295D01*
X144168714Y-117882295D02*
X144121095Y-117787057D01*
X144121095Y-117787057D02*
X144073476Y-117739438D01*
X144073476Y-117739438D02*
X143978238Y-117691819D01*
X143978238Y-117691819D02*
X143787762Y-117691819D01*
X143787762Y-117691819D02*
X143692524Y-117739438D01*
X143692524Y-117739438D02*
X143644905Y-117787057D01*
X143644905Y-117787057D02*
X143597286Y-117882295D01*
X143597286Y-117882295D02*
X143597286Y-118120390D01*
X143597286Y-118120390D02*
X143644905Y-118215628D01*
X143644905Y-118215628D02*
X143692524Y-118263247D01*
X143692524Y-118263247D02*
X143787762Y-118310866D01*
X143787762Y-118310866D02*
X143978238Y-118310866D01*
X143978238Y-118310866D02*
X144073476Y-118263247D01*
X144073476Y-118263247D02*
X144121095Y-118215628D01*
X144121095Y-118215628D02*
X144168714Y-118120390D01*
X133310333Y-96212819D02*
X132977000Y-95736628D01*
X132738905Y-96212819D02*
X132738905Y-95212819D01*
X132738905Y-95212819D02*
X133119857Y-95212819D01*
X133119857Y-95212819D02*
X133215095Y-95260438D01*
X133215095Y-95260438D02*
X133262714Y-95308057D01*
X133262714Y-95308057D02*
X133310333Y-95403295D01*
X133310333Y-95403295D02*
X133310333Y-95546152D01*
X133310333Y-95546152D02*
X133262714Y-95641390D01*
X133262714Y-95641390D02*
X133215095Y-95689009D01*
X133215095Y-95689009D02*
X133119857Y-95736628D01*
X133119857Y-95736628D02*
X132738905Y-95736628D01*
X134167476Y-95546152D02*
X134167476Y-96212819D01*
X133929381Y-95165200D02*
X133691286Y-95879485D01*
X133691286Y-95879485D02*
X134310333Y-95879485D01*
X139533333Y-77321580D02*
X139485714Y-77369200D01*
X139485714Y-77369200D02*
X139342857Y-77416819D01*
X139342857Y-77416819D02*
X139247619Y-77416819D01*
X139247619Y-77416819D02*
X139104762Y-77369200D01*
X139104762Y-77369200D02*
X139009524Y-77273961D01*
X139009524Y-77273961D02*
X138961905Y-77178723D01*
X138961905Y-77178723D02*
X138914286Y-76988247D01*
X138914286Y-76988247D02*
X138914286Y-76845390D01*
X138914286Y-76845390D02*
X138961905Y-76654914D01*
X138961905Y-76654914D02*
X139009524Y-76559676D01*
X139009524Y-76559676D02*
X139104762Y-76464438D01*
X139104762Y-76464438D02*
X139247619Y-76416819D01*
X139247619Y-76416819D02*
X139342857Y-76416819D01*
X139342857Y-76416819D02*
X139485714Y-76464438D01*
X139485714Y-76464438D02*
X139533333Y-76512057D01*
X140390476Y-76750152D02*
X140390476Y-77416819D01*
X140152381Y-76369200D02*
X139914286Y-77083485D01*
X139914286Y-77083485D02*
X140533333Y-77083485D01*
X142232142Y-120977819D02*
X141898809Y-120501628D01*
X141660714Y-120977819D02*
X141660714Y-119977819D01*
X141660714Y-119977819D02*
X142041666Y-119977819D01*
X142041666Y-119977819D02*
X142136904Y-120025438D01*
X142136904Y-120025438D02*
X142184523Y-120073057D01*
X142184523Y-120073057D02*
X142232142Y-120168295D01*
X142232142Y-120168295D02*
X142232142Y-120311152D01*
X142232142Y-120311152D02*
X142184523Y-120406390D01*
X142184523Y-120406390D02*
X142136904Y-120454009D01*
X142136904Y-120454009D02*
X142041666Y-120501628D01*
X142041666Y-120501628D02*
X141660714Y-120501628D01*
X143184523Y-120977819D02*
X142613095Y-120977819D01*
X142898809Y-120977819D02*
X142898809Y-119977819D01*
X142898809Y-119977819D02*
X142803571Y-120120676D01*
X142803571Y-120120676D02*
X142708333Y-120215914D01*
X142708333Y-120215914D02*
X142613095Y-120263533D01*
X143803571Y-119977819D02*
X143898809Y-119977819D01*
X143898809Y-119977819D02*
X143994047Y-120025438D01*
X143994047Y-120025438D02*
X144041666Y-120073057D01*
X144041666Y-120073057D02*
X144089285Y-120168295D01*
X144089285Y-120168295D02*
X144136904Y-120358771D01*
X144136904Y-120358771D02*
X144136904Y-120596866D01*
X144136904Y-120596866D02*
X144089285Y-120787342D01*
X144089285Y-120787342D02*
X144041666Y-120882580D01*
X144041666Y-120882580D02*
X143994047Y-120930200D01*
X143994047Y-120930200D02*
X143898809Y-120977819D01*
X143898809Y-120977819D02*
X143803571Y-120977819D01*
X143803571Y-120977819D02*
X143708333Y-120930200D01*
X143708333Y-120930200D02*
X143660714Y-120882580D01*
X143660714Y-120882580D02*
X143613095Y-120787342D01*
X143613095Y-120787342D02*
X143565476Y-120596866D01*
X143565476Y-120596866D02*
X143565476Y-120358771D01*
X143565476Y-120358771D02*
X143613095Y-120168295D01*
X143613095Y-120168295D02*
X143660714Y-120073057D01*
X143660714Y-120073057D02*
X143708333Y-120025438D01*
X143708333Y-120025438D02*
X143803571Y-119977819D01*
X125483580Y-95990666D02*
X125531200Y-96038285D01*
X125531200Y-96038285D02*
X125578819Y-96181142D01*
X125578819Y-96181142D02*
X125578819Y-96276380D01*
X125578819Y-96276380D02*
X125531200Y-96419237D01*
X125531200Y-96419237D02*
X125435961Y-96514475D01*
X125435961Y-96514475D02*
X125340723Y-96562094D01*
X125340723Y-96562094D02*
X125150247Y-96609713D01*
X125150247Y-96609713D02*
X125007390Y-96609713D01*
X125007390Y-96609713D02*
X124816914Y-96562094D01*
X124816914Y-96562094D02*
X124721676Y-96514475D01*
X124721676Y-96514475D02*
X124626438Y-96419237D01*
X124626438Y-96419237D02*
X124578819Y-96276380D01*
X124578819Y-96276380D02*
X124578819Y-96181142D01*
X124578819Y-96181142D02*
X124626438Y-96038285D01*
X124626438Y-96038285D02*
X124674057Y-95990666D01*
X125578819Y-95514475D02*
X125578819Y-95323999D01*
X125578819Y-95323999D02*
X125531200Y-95228761D01*
X125531200Y-95228761D02*
X125483580Y-95181142D01*
X125483580Y-95181142D02*
X125340723Y-95085904D01*
X125340723Y-95085904D02*
X125150247Y-95038285D01*
X125150247Y-95038285D02*
X124769295Y-95038285D01*
X124769295Y-95038285D02*
X124674057Y-95085904D01*
X124674057Y-95085904D02*
X124626438Y-95133523D01*
X124626438Y-95133523D02*
X124578819Y-95228761D01*
X124578819Y-95228761D02*
X124578819Y-95419237D01*
X124578819Y-95419237D02*
X124626438Y-95514475D01*
X124626438Y-95514475D02*
X124674057Y-95562094D01*
X124674057Y-95562094D02*
X124769295Y-95609713D01*
X124769295Y-95609713D02*
X125007390Y-95609713D01*
X125007390Y-95609713D02*
X125102628Y-95562094D01*
X125102628Y-95562094D02*
X125150247Y-95514475D01*
X125150247Y-95514475D02*
X125197866Y-95419237D01*
X125197866Y-95419237D02*
X125197866Y-95228761D01*
X125197866Y-95228761D02*
X125150247Y-95133523D01*
X125150247Y-95133523D02*
X125102628Y-95085904D01*
X125102628Y-95085904D02*
X125007390Y-95038285D01*
X149217142Y-125168819D02*
X148883809Y-124692628D01*
X148645714Y-125168819D02*
X148645714Y-124168819D01*
X148645714Y-124168819D02*
X149026666Y-124168819D01*
X149026666Y-124168819D02*
X149121904Y-124216438D01*
X149121904Y-124216438D02*
X149169523Y-124264057D01*
X149169523Y-124264057D02*
X149217142Y-124359295D01*
X149217142Y-124359295D02*
X149217142Y-124502152D01*
X149217142Y-124502152D02*
X149169523Y-124597390D01*
X149169523Y-124597390D02*
X149121904Y-124645009D01*
X149121904Y-124645009D02*
X149026666Y-124692628D01*
X149026666Y-124692628D02*
X148645714Y-124692628D01*
X150169523Y-125168819D02*
X149598095Y-125168819D01*
X149883809Y-125168819D02*
X149883809Y-124168819D01*
X149883809Y-124168819D02*
X149788571Y-124311676D01*
X149788571Y-124311676D02*
X149693333Y-124406914D01*
X149693333Y-124406914D02*
X149598095Y-124454533D01*
X151074285Y-124168819D02*
X150598095Y-124168819D01*
X150598095Y-124168819D02*
X150550476Y-124645009D01*
X150550476Y-124645009D02*
X150598095Y-124597390D01*
X150598095Y-124597390D02*
X150693333Y-124549771D01*
X150693333Y-124549771D02*
X150931428Y-124549771D01*
X150931428Y-124549771D02*
X151026666Y-124597390D01*
X151026666Y-124597390D02*
X151074285Y-124645009D01*
X151074285Y-124645009D02*
X151121904Y-124740247D01*
X151121904Y-124740247D02*
X151121904Y-124978342D01*
X151121904Y-124978342D02*
X151074285Y-125073580D01*
X151074285Y-125073580D02*
X151026666Y-125121200D01*
X151026666Y-125121200D02*
X150931428Y-125168819D01*
X150931428Y-125168819D02*
X150693333Y-125168819D01*
X150693333Y-125168819D02*
X150598095Y-125121200D01*
X150598095Y-125121200D02*
X150550476Y-125073580D01*
X151090333Y-131550580D02*
X151042714Y-131598200D01*
X151042714Y-131598200D02*
X150899857Y-131645819D01*
X150899857Y-131645819D02*
X150804619Y-131645819D01*
X150804619Y-131645819D02*
X150661762Y-131598200D01*
X150661762Y-131598200D02*
X150566524Y-131502961D01*
X150566524Y-131502961D02*
X150518905Y-131407723D01*
X150518905Y-131407723D02*
X150471286Y-131217247D01*
X150471286Y-131217247D02*
X150471286Y-131074390D01*
X150471286Y-131074390D02*
X150518905Y-130883914D01*
X150518905Y-130883914D02*
X150566524Y-130788676D01*
X150566524Y-130788676D02*
X150661762Y-130693438D01*
X150661762Y-130693438D02*
X150804619Y-130645819D01*
X150804619Y-130645819D02*
X150899857Y-130645819D01*
X150899857Y-130645819D02*
X151042714Y-130693438D01*
X151042714Y-130693438D02*
X151090333Y-130741057D01*
X151423667Y-130645819D02*
X152042714Y-130645819D01*
X152042714Y-130645819D02*
X151709381Y-131026771D01*
X151709381Y-131026771D02*
X151852238Y-131026771D01*
X151852238Y-131026771D02*
X151947476Y-131074390D01*
X151947476Y-131074390D02*
X151995095Y-131122009D01*
X151995095Y-131122009D02*
X152042714Y-131217247D01*
X152042714Y-131217247D02*
X152042714Y-131455342D01*
X152042714Y-131455342D02*
X151995095Y-131550580D01*
X151995095Y-131550580D02*
X151947476Y-131598200D01*
X151947476Y-131598200D02*
X151852238Y-131645819D01*
X151852238Y-131645819D02*
X151566524Y-131645819D01*
X151566524Y-131645819D02*
X151471286Y-131598200D01*
X151471286Y-131598200D02*
X151423667Y-131550580D01*
X145186095Y-76488819D02*
X145186095Y-77298342D01*
X145186095Y-77298342D02*
X145233714Y-77393580D01*
X145233714Y-77393580D02*
X145281333Y-77441200D01*
X145281333Y-77441200D02*
X145376571Y-77488819D01*
X145376571Y-77488819D02*
X145567047Y-77488819D01*
X145567047Y-77488819D02*
X145662285Y-77441200D01*
X145662285Y-77441200D02*
X145709904Y-77393580D01*
X145709904Y-77393580D02*
X145757523Y-77298342D01*
X145757523Y-77298342D02*
X145757523Y-76488819D01*
X146186095Y-76584057D02*
X146233714Y-76536438D01*
X146233714Y-76536438D02*
X146328952Y-76488819D01*
X146328952Y-76488819D02*
X146567047Y-76488819D01*
X146567047Y-76488819D02*
X146662285Y-76536438D01*
X146662285Y-76536438D02*
X146709904Y-76584057D01*
X146709904Y-76584057D02*
X146757523Y-76679295D01*
X146757523Y-76679295D02*
X146757523Y-76774533D01*
X146757523Y-76774533D02*
X146709904Y-76917390D01*
X146709904Y-76917390D02*
X146138476Y-77488819D01*
X146138476Y-77488819D02*
X146757523Y-77488819D01*
X138248819Y-88662166D02*
X137772628Y-88995499D01*
X138248819Y-89233594D02*
X137248819Y-89233594D01*
X137248819Y-89233594D02*
X137248819Y-88852642D01*
X137248819Y-88852642D02*
X137296438Y-88757404D01*
X137296438Y-88757404D02*
X137344057Y-88709785D01*
X137344057Y-88709785D02*
X137439295Y-88662166D01*
X137439295Y-88662166D02*
X137582152Y-88662166D01*
X137582152Y-88662166D02*
X137677390Y-88709785D01*
X137677390Y-88709785D02*
X137725009Y-88757404D01*
X137725009Y-88757404D02*
X137772628Y-88852642D01*
X137772628Y-88852642D02*
X137772628Y-89233594D01*
X137248819Y-87757404D02*
X137248819Y-88233594D01*
X137248819Y-88233594D02*
X137725009Y-88281213D01*
X137725009Y-88281213D02*
X137677390Y-88233594D01*
X137677390Y-88233594D02*
X137629771Y-88138356D01*
X137629771Y-88138356D02*
X137629771Y-87900261D01*
X137629771Y-87900261D02*
X137677390Y-87805023D01*
X137677390Y-87805023D02*
X137725009Y-87757404D01*
X137725009Y-87757404D02*
X137820247Y-87709785D01*
X137820247Y-87709785D02*
X138058342Y-87709785D01*
X138058342Y-87709785D02*
X138153580Y-87757404D01*
X138153580Y-87757404D02*
X138201200Y-87805023D01*
X138201200Y-87805023D02*
X138248819Y-87900261D01*
X138248819Y-87900261D02*
X138248819Y-88138356D01*
X138248819Y-88138356D02*
X138201200Y-88233594D01*
X138201200Y-88233594D02*
X138153580Y-88281213D01*
X126833333Y-93164819D02*
X126500000Y-92688628D01*
X126261905Y-93164819D02*
X126261905Y-92164819D01*
X126261905Y-92164819D02*
X126642857Y-92164819D01*
X126642857Y-92164819D02*
X126738095Y-92212438D01*
X126738095Y-92212438D02*
X126785714Y-92260057D01*
X126785714Y-92260057D02*
X126833333Y-92355295D01*
X126833333Y-92355295D02*
X126833333Y-92498152D01*
X126833333Y-92498152D02*
X126785714Y-92593390D01*
X126785714Y-92593390D02*
X126738095Y-92641009D01*
X126738095Y-92641009D02*
X126642857Y-92688628D01*
X126642857Y-92688628D02*
X126261905Y-92688628D01*
X127214286Y-92260057D02*
X127261905Y-92212438D01*
X127261905Y-92212438D02*
X127357143Y-92164819D01*
X127357143Y-92164819D02*
X127595238Y-92164819D01*
X127595238Y-92164819D02*
X127690476Y-92212438D01*
X127690476Y-92212438D02*
X127738095Y-92260057D01*
X127738095Y-92260057D02*
X127785714Y-92355295D01*
X127785714Y-92355295D02*
X127785714Y-92450533D01*
X127785714Y-92450533D02*
X127738095Y-92593390D01*
X127738095Y-92593390D02*
X127166667Y-93164819D01*
X127166667Y-93164819D02*
X127785714Y-93164819D01*
X145732833Y-122755819D02*
X145399500Y-122279628D01*
X145161405Y-122755819D02*
X145161405Y-121755819D01*
X145161405Y-121755819D02*
X145542357Y-121755819D01*
X145542357Y-121755819D02*
X145637595Y-121803438D01*
X145637595Y-121803438D02*
X145685214Y-121851057D01*
X145685214Y-121851057D02*
X145732833Y-121946295D01*
X145732833Y-121946295D02*
X145732833Y-122089152D01*
X145732833Y-122089152D02*
X145685214Y-122184390D01*
X145685214Y-122184390D02*
X145637595Y-122232009D01*
X145637595Y-122232009D02*
X145542357Y-122279628D01*
X145542357Y-122279628D02*
X145161405Y-122279628D01*
X146066167Y-121755819D02*
X146732833Y-121755819D01*
X146732833Y-121755819D02*
X146304262Y-122755819D01*
X138373333Y-104880580D02*
X138325714Y-104928200D01*
X138325714Y-104928200D02*
X138182857Y-104975819D01*
X138182857Y-104975819D02*
X138087619Y-104975819D01*
X138087619Y-104975819D02*
X137944762Y-104928200D01*
X137944762Y-104928200D02*
X137849524Y-104832961D01*
X137849524Y-104832961D02*
X137801905Y-104737723D01*
X137801905Y-104737723D02*
X137754286Y-104547247D01*
X137754286Y-104547247D02*
X137754286Y-104404390D01*
X137754286Y-104404390D02*
X137801905Y-104213914D01*
X137801905Y-104213914D02*
X137849524Y-104118676D01*
X137849524Y-104118676D02*
X137944762Y-104023438D01*
X137944762Y-104023438D02*
X138087619Y-103975819D01*
X138087619Y-103975819D02*
X138182857Y-103975819D01*
X138182857Y-103975819D02*
X138325714Y-104023438D01*
X138325714Y-104023438D02*
X138373333Y-104071057D01*
X138944762Y-104404390D02*
X138849524Y-104356771D01*
X138849524Y-104356771D02*
X138801905Y-104309152D01*
X138801905Y-104309152D02*
X138754286Y-104213914D01*
X138754286Y-104213914D02*
X138754286Y-104166295D01*
X138754286Y-104166295D02*
X138801905Y-104071057D01*
X138801905Y-104071057D02*
X138849524Y-104023438D01*
X138849524Y-104023438D02*
X138944762Y-103975819D01*
X138944762Y-103975819D02*
X139135238Y-103975819D01*
X139135238Y-103975819D02*
X139230476Y-104023438D01*
X139230476Y-104023438D02*
X139278095Y-104071057D01*
X139278095Y-104071057D02*
X139325714Y-104166295D01*
X139325714Y-104166295D02*
X139325714Y-104213914D01*
X139325714Y-104213914D02*
X139278095Y-104309152D01*
X139278095Y-104309152D02*
X139230476Y-104356771D01*
X139230476Y-104356771D02*
X139135238Y-104404390D01*
X139135238Y-104404390D02*
X138944762Y-104404390D01*
X138944762Y-104404390D02*
X138849524Y-104452009D01*
X138849524Y-104452009D02*
X138801905Y-104499628D01*
X138801905Y-104499628D02*
X138754286Y-104594866D01*
X138754286Y-104594866D02*
X138754286Y-104785342D01*
X138754286Y-104785342D02*
X138801905Y-104880580D01*
X138801905Y-104880580D02*
X138849524Y-104928200D01*
X138849524Y-104928200D02*
X138944762Y-104975819D01*
X138944762Y-104975819D02*
X139135238Y-104975819D01*
X139135238Y-104975819D02*
X139230476Y-104928200D01*
X139230476Y-104928200D02*
X139278095Y-104880580D01*
X139278095Y-104880580D02*
X139325714Y-104785342D01*
X139325714Y-104785342D02*
X139325714Y-104594866D01*
X139325714Y-104594866D02*
X139278095Y-104499628D01*
X139278095Y-104499628D02*
X139230476Y-104452009D01*
X139230476Y-104452009D02*
X139135238Y-104404390D01*
X153738095Y-107414819D02*
X153738095Y-106414819D01*
X153738095Y-106891009D02*
X154309523Y-106891009D01*
X154309523Y-107414819D02*
X154309523Y-106414819D01*
X154785714Y-107033866D02*
X155547619Y-107033866D01*
X156357142Y-106891009D02*
X156499999Y-106938628D01*
X156499999Y-106938628D02*
X156547618Y-106986247D01*
X156547618Y-106986247D02*
X156595237Y-107081485D01*
X156595237Y-107081485D02*
X156595237Y-107224342D01*
X156595237Y-107224342D02*
X156547618Y-107319580D01*
X156547618Y-107319580D02*
X156499999Y-107367200D01*
X156499999Y-107367200D02*
X156404761Y-107414819D01*
X156404761Y-107414819D02*
X156023809Y-107414819D01*
X156023809Y-107414819D02*
X156023809Y-106414819D01*
X156023809Y-106414819D02*
X156357142Y-106414819D01*
X156357142Y-106414819D02*
X156452380Y-106462438D01*
X156452380Y-106462438D02*
X156499999Y-106510057D01*
X156499999Y-106510057D02*
X156547618Y-106605295D01*
X156547618Y-106605295D02*
X156547618Y-106700533D01*
X156547618Y-106700533D02*
X156499999Y-106795771D01*
X156499999Y-106795771D02*
X156452380Y-106843390D01*
X156452380Y-106843390D02*
X156357142Y-106891009D01*
X156357142Y-106891009D02*
X156023809Y-106891009D01*
X157023809Y-107414819D02*
X157023809Y-106748152D01*
X157023809Y-106938628D02*
X157071428Y-106843390D01*
X157071428Y-106843390D02*
X157119047Y-106795771D01*
X157119047Y-106795771D02*
X157214285Y-106748152D01*
X157214285Y-106748152D02*
X157309523Y-106748152D01*
X157642857Y-107414819D02*
X157642857Y-106748152D01*
X157642857Y-106414819D02*
X157595238Y-106462438D01*
X157595238Y-106462438D02*
X157642857Y-106510057D01*
X157642857Y-106510057D02*
X157690476Y-106462438D01*
X157690476Y-106462438D02*
X157642857Y-106414819D01*
X157642857Y-106414819D02*
X157642857Y-106510057D01*
X158547618Y-107414819D02*
X158547618Y-106414819D01*
X158547618Y-107367200D02*
X158452380Y-107414819D01*
X158452380Y-107414819D02*
X158261904Y-107414819D01*
X158261904Y-107414819D02*
X158166666Y-107367200D01*
X158166666Y-107367200D02*
X158119047Y-107319580D01*
X158119047Y-107319580D02*
X158071428Y-107224342D01*
X158071428Y-107224342D02*
X158071428Y-106938628D01*
X158071428Y-106938628D02*
X158119047Y-106843390D01*
X158119047Y-106843390D02*
X158166666Y-106795771D01*
X158166666Y-106795771D02*
X158261904Y-106748152D01*
X158261904Y-106748152D02*
X158452380Y-106748152D01*
X158452380Y-106748152D02*
X158547618Y-106795771D01*
X159452380Y-106748152D02*
X159452380Y-107557676D01*
X159452380Y-107557676D02*
X159404761Y-107652914D01*
X159404761Y-107652914D02*
X159357142Y-107700533D01*
X159357142Y-107700533D02*
X159261904Y-107748152D01*
X159261904Y-107748152D02*
X159119047Y-107748152D01*
X159119047Y-107748152D02*
X159023809Y-107700533D01*
X159452380Y-107367200D02*
X159357142Y-107414819D01*
X159357142Y-107414819D02*
X159166666Y-107414819D01*
X159166666Y-107414819D02*
X159071428Y-107367200D01*
X159071428Y-107367200D02*
X159023809Y-107319580D01*
X159023809Y-107319580D02*
X158976190Y-107224342D01*
X158976190Y-107224342D02*
X158976190Y-106938628D01*
X158976190Y-106938628D02*
X159023809Y-106843390D01*
X159023809Y-106843390D02*
X159071428Y-106795771D01*
X159071428Y-106795771D02*
X159166666Y-106748152D01*
X159166666Y-106748152D02*
X159357142Y-106748152D01*
X159357142Y-106748152D02*
X159452380Y-106795771D01*
X160309523Y-107367200D02*
X160214285Y-107414819D01*
X160214285Y-107414819D02*
X160023809Y-107414819D01*
X160023809Y-107414819D02*
X159928571Y-107367200D01*
X159928571Y-107367200D02*
X159880952Y-107271961D01*
X159880952Y-107271961D02*
X159880952Y-106891009D01*
X159880952Y-106891009D02*
X159928571Y-106795771D01*
X159928571Y-106795771D02*
X160023809Y-106748152D01*
X160023809Y-106748152D02*
X160214285Y-106748152D01*
X160214285Y-106748152D02*
X160309523Y-106795771D01*
X160309523Y-106795771D02*
X160357142Y-106891009D01*
X160357142Y-106891009D02*
X160357142Y-106986247D01*
X160357142Y-106986247D02*
X159880952Y-107081485D01*
X160738095Y-106510057D02*
X160785714Y-106462438D01*
X160785714Y-106462438D02*
X160880952Y-106414819D01*
X160880952Y-106414819D02*
X161119047Y-106414819D01*
X161119047Y-106414819D02*
X161214285Y-106462438D01*
X161214285Y-106462438D02*
X161261904Y-106510057D01*
X161261904Y-106510057D02*
X161309523Y-106605295D01*
X161309523Y-106605295D02*
X161309523Y-106700533D01*
X161309523Y-106700533D02*
X161261904Y-106843390D01*
X161261904Y-106843390D02*
X160690476Y-107414819D01*
X160690476Y-107414819D02*
X161309523Y-107414819D01*
X146859666Y-115659819D02*
X146859666Y-116374104D01*
X146859666Y-116374104D02*
X146812047Y-116516961D01*
X146812047Y-116516961D02*
X146716809Y-116612200D01*
X146716809Y-116612200D02*
X146573952Y-116659819D01*
X146573952Y-116659819D02*
X146478714Y-116659819D01*
X147288238Y-115755057D02*
X147335857Y-115707438D01*
X147335857Y-115707438D02*
X147431095Y-115659819D01*
X147431095Y-115659819D02*
X147669190Y-115659819D01*
X147669190Y-115659819D02*
X147764428Y-115707438D01*
X147764428Y-115707438D02*
X147812047Y-115755057D01*
X147812047Y-115755057D02*
X147859666Y-115850295D01*
X147859666Y-115850295D02*
X147859666Y-115945533D01*
X147859666Y-115945533D02*
X147812047Y-116088390D01*
X147812047Y-116088390D02*
X147240619Y-116659819D01*
X147240619Y-116659819D02*
X147859666Y-116659819D01*
X137096571Y-111095164D02*
X137096571Y-111702307D01*
X137096571Y-111702307D02*
X137132285Y-111773735D01*
X137132285Y-111773735D02*
X137168000Y-111809450D01*
X137168000Y-111809450D02*
X137239428Y-111845164D01*
X137239428Y-111845164D02*
X137382285Y-111845164D01*
X137382285Y-111845164D02*
X137453714Y-111809450D01*
X137453714Y-111809450D02*
X137489428Y-111773735D01*
X137489428Y-111773735D02*
X137525142Y-111702307D01*
X137525142Y-111702307D02*
X137525142Y-111095164D01*
X137810856Y-111095164D02*
X138275142Y-111095164D01*
X138275142Y-111095164D02*
X138025142Y-111380878D01*
X138025142Y-111380878D02*
X138132285Y-111380878D01*
X138132285Y-111380878D02*
X138203714Y-111416592D01*
X138203714Y-111416592D02*
X138239428Y-111452307D01*
X138239428Y-111452307D02*
X138275142Y-111523735D01*
X138275142Y-111523735D02*
X138275142Y-111702307D01*
X138275142Y-111702307D02*
X138239428Y-111773735D01*
X138239428Y-111773735D02*
X138203714Y-111809450D01*
X138203714Y-111809450D02*
X138132285Y-111845164D01*
X138132285Y-111845164D02*
X137917999Y-111845164D01*
X137917999Y-111845164D02*
X137846571Y-111809450D01*
X137846571Y-111809450D02*
X137810856Y-111773735D01*
%TO.C,R16*%
D12*
X156522064Y-141260000D02*
X156067936Y-141260000D01*
X156522064Y-139790000D02*
X156067936Y-139790000D01*
%TO.C,Y1*%
X142172000Y-125250000D02*
X142172000Y-128750000D01*
X142172000Y-128750000D02*
X146372000Y-128750000D01*
%TO.C,GPIOS1*%
X156120000Y-101810000D02*
X156120000Y-78840000D01*
X158880000Y-78840000D02*
X156120000Y-78840000D01*
X158880000Y-101810000D02*
X156120000Y-101810000D01*
X158880000Y-101810000D02*
X158880000Y-78840000D01*
X158880000Y-103080000D02*
X158880000Y-104460000D01*
X158880000Y-104460000D02*
X157500000Y-104460000D01*
%TO.C,U1*%
X122624000Y-99847000D02*
X122884000Y-99847000D01*
X122624000Y-102572000D02*
X122624000Y-99847000D01*
X122624000Y-102572000D02*
X122624000Y-105297000D01*
X122624000Y-105297000D02*
X122884000Y-105297000D01*
X128074000Y-99847000D02*
X127814000Y-99847000D01*
X128074000Y-102572000D02*
X128074000Y-99847000D01*
X128074000Y-102572000D02*
X128074000Y-105297000D01*
X128074000Y-105297000D02*
X127814000Y-105297000D01*
X128144000Y-99304500D02*
X127814000Y-99064500D01*
X128144000Y-98824500D01*
X128144000Y-99304500D01*
G36*
X128144000Y-99304500D02*
G01*
X127814000Y-99064500D01*
X128144000Y-98824500D01*
X128144000Y-99304500D01*
G37*
%TO.C,D1*%
X133809000Y-81916000D02*
X133809000Y-85216000D01*
X133809000Y-81916000D02*
X139319000Y-81916000D01*
X133809000Y-85216000D02*
X139319000Y-85216000D01*
%TO.C,R14*%
X128346564Y-113184000D02*
X127892436Y-113184000D01*
X128346564Y-114654000D02*
X127892436Y-114654000D01*
%TO.C,C6*%
X138234748Y-95150000D02*
X138757252Y-95150000D01*
X138234748Y-96620000D02*
X138757252Y-96620000D01*
%TO.C,D4*%
X122823500Y-111816000D02*
X122823500Y-113736000D01*
X122823500Y-113736000D02*
X125508500Y-113736000D01*
X125508500Y-111816000D02*
X122823500Y-111816000D01*
%TO.C,H-Bridge1*%
X122960000Y-141880000D02*
X122960000Y-140500000D01*
X124340000Y-141880000D02*
X122960000Y-141880000D01*
X125610000Y-139120000D02*
X148580000Y-139120000D01*
X125610000Y-141880000D02*
X125610000Y-139120000D01*
X125610000Y-141880000D02*
X148580000Y-141880000D01*
X148580000Y-141880000D02*
X148580000Y-139120000D01*
%TO.C,R6*%
X132869000Y-88268436D02*
X132869000Y-88722564D01*
X134339000Y-88268436D02*
X134339000Y-88722564D01*
%TO.C,MyowareSensors1*%
X147620000Y-99080000D02*
X147620000Y-86270000D01*
X150380000Y-86270000D02*
X147620000Y-86270000D01*
X150380000Y-99080000D02*
X147620000Y-99080000D01*
X150380000Y-99080000D02*
X150380000Y-86270000D01*
X150380000Y-100350000D02*
X150380000Y-101730000D01*
X150380000Y-101730000D02*
X149000000Y-101730000D01*
%TO.C,R13*%
X128346564Y-115343000D02*
X127892436Y-115343000D01*
X128346564Y-116813000D02*
X127892436Y-116813000D01*
%TO.C,D2*%
X149192500Y-115387000D02*
X151877500Y-115387000D01*
X151877500Y-113467000D02*
X149192500Y-113467000D01*
X151877500Y-115387000D02*
X151877500Y-113467000D01*
%TO.C,R3*%
X135155000Y-92967436D02*
X135155000Y-93421564D01*
X136625000Y-92967436D02*
X136625000Y-93421564D01*
%TO.C,R8*%
X138306436Y-99849000D02*
X138760564Y-99849000D01*
X138306436Y-101319000D02*
X138760564Y-101319000D01*
%TO.C,D5*%
X122853500Y-113975000D02*
X122853500Y-115895000D01*
X122853500Y-115895000D02*
X125538500Y-115895000D01*
X125538500Y-113975000D02*
X122853500Y-113975000D01*
%TO.C,C1*%
X136171000Y-79824252D02*
X136171000Y-79301748D01*
X137641000Y-79824252D02*
X137641000Y-79301748D01*
%TO.C,C5*%
X149506000Y-126677748D02*
X149506000Y-127200252D01*
X150976000Y-126677748D02*
X150976000Y-127200252D01*
%TO.C,SW1*%
X124358000Y-87558000D02*
X130478000Y-87558000D01*
X124358000Y-91258000D02*
X124358000Y-87558000D01*
X130478000Y-87558000D02*
X130478000Y-91258000D01*
X130478000Y-91258000D02*
X124358000Y-91258000D01*
%TO.C,R12*%
X128346564Y-110898000D02*
X127892436Y-110898000D01*
X128346564Y-112368000D02*
X127892436Y-112368000D01*
%TO.C,R1*%
X125884000Y-95634436D02*
X125884000Y-96088564D01*
X127354000Y-95634436D02*
X127354000Y-96088564D01*
%TO.C,C7*%
X138278748Y-97431000D02*
X138801252Y-97431000D01*
X138278748Y-98901000D02*
X138801252Y-98901000D01*
%TO.C,J3*%
X123130000Y-124460000D02*
X123130000Y-116780000D01*
X123130000Y-127060000D02*
X123130000Y-125730000D01*
X124460000Y-127060000D02*
X123130000Y-127060000D01*
X125790000Y-116780000D02*
X123130000Y-116780000D01*
X125790000Y-124460000D02*
X123130000Y-124460000D01*
X125790000Y-124460000D02*
X125790000Y-116780000D01*
%TO.C,D3*%
X149095500Y-112720000D02*
X151780500Y-112720000D01*
X151780500Y-110800000D02*
X149095500Y-110800000D01*
X151780500Y-112720000D02*
X151780500Y-110800000D01*
%TO.C,J1*%
X122897034Y-76959000D02*
X122897034Y-86359000D01*
X124797034Y-76959000D02*
X122897034Y-76959000D01*
X124797034Y-86359000D02*
X122897034Y-86359000D01*
X128697034Y-76959000D02*
X126697034Y-76959000D01*
X128697034Y-86359000D02*
X126697034Y-86359000D01*
%TO.C,R11*%
X128346564Y-108866000D02*
X127892436Y-108866000D01*
X128346564Y-110336000D02*
X127892436Y-110336000D01*
%TO.C,C2*%
X122836000Y-129466748D02*
X122836000Y-129989252D01*
X124306000Y-129466748D02*
X124306000Y-129989252D01*
%TO.C,R9*%
X145932936Y-117375000D02*
X146387064Y-117375000D01*
X145932936Y-118845000D02*
X146387064Y-118845000D01*
%TO.C,R4*%
X132742000Y-93421564D02*
X132742000Y-92967436D01*
X134212000Y-93421564D02*
X134212000Y-92967436D01*
%TO.C,C4*%
X138965000Y-79697252D02*
X138965000Y-79174748D01*
X140435000Y-79697252D02*
X140435000Y-79174748D01*
%TO.C,R10*%
X145926436Y-119661000D02*
X146380564Y-119661000D01*
X145926436Y-121131000D02*
X146380564Y-121131000D01*
%TO.C,C9*%
X122709000Y-95562748D02*
X122709000Y-96085252D01*
X124179000Y-95562748D02*
X124179000Y-96085252D01*
%TO.C,R15*%
X147093000Y-127100064D02*
X147093000Y-126645936D01*
X148563000Y-127100064D02*
X148563000Y-126645936D01*
%TO.C,C3*%
X148521748Y-129313000D02*
X149044252Y-129313000D01*
X148521748Y-130783000D02*
X149044252Y-130783000D01*
%TO.C,U2*%
X144098000Y-78124000D02*
X147858000Y-78124000D01*
X144098000Y-84944000D02*
X147858000Y-84944000D01*
X147858000Y-78124000D02*
X147858000Y-79384000D01*
X147858000Y-84944000D02*
X147858000Y-83684000D01*
X142818000Y-78224000D02*
X142578000Y-77894000D01*
X143058000Y-77894000D01*
X142818000Y-78224000D01*
G36*
X142818000Y-78224000D02*
G01*
X142578000Y-77894000D01*
X143058000Y-77894000D01*
X142818000Y-78224000D01*
G37*
%TO.C,R5*%
X135409000Y-88268436D02*
X135409000Y-88722564D01*
X136879000Y-88268436D02*
X136879000Y-88722564D01*
%TO.C,R2*%
X124409564Y-91975000D02*
X123955436Y-91975000D01*
X124409564Y-93445000D02*
X123955436Y-93445000D01*
%TO.C,R7*%
X145672436Y-122963000D02*
X146126564Y-122963000D01*
X145672436Y-124433000D02*
X146126564Y-124433000D01*
%TO.C,C8*%
X138278748Y-102262000D02*
X138801252Y-102262000D01*
X138278748Y-103732000D02*
X138801252Y-103732000D01*
%TO.C,H-Bridge2*%
X156120000Y-107960000D02*
X157500000Y-107960000D01*
X156120000Y-109340000D02*
X156120000Y-107960000D01*
X156120000Y-110610000D02*
X156120000Y-133580000D01*
X156120000Y-110610000D02*
X158880000Y-110610000D01*
X156120000Y-133580000D02*
X158880000Y-133580000D01*
X158880000Y-110610000D02*
X158880000Y-133580000D01*
%TO.C,J2*%
X148530000Y-121285000D02*
X148530000Y-116145000D01*
X148530000Y-123885000D02*
X148530000Y-122555000D01*
X149860000Y-123885000D02*
X148530000Y-123885000D01*
X151190000Y-116145000D02*
X148530000Y-116145000D01*
X151190000Y-121285000D02*
X148530000Y-121285000D01*
X151190000Y-121285000D02*
X151190000Y-116145000D01*
%TO.C,U3*%
X132855000Y-113363500D02*
X132855000Y-112953500D01*
X132855000Y-119933500D02*
X132855000Y-119283500D01*
X133505000Y-112713500D02*
X133155000Y-112713500D01*
X133505000Y-119933500D02*
X132855000Y-119933500D01*
X139425000Y-112713500D02*
X140075000Y-112713500D01*
X139425000Y-119933500D02*
X140075000Y-119933500D01*
X140075000Y-112713500D02*
X140075000Y-113363500D01*
X140075000Y-119933500D02*
X140075000Y-119283500D01*
X132855000Y-112713500D02*
X132615000Y-112383500D01*
X133095000Y-112383500D01*
X132855000Y-112713500D01*
G36*
X132855000Y-112713500D02*
G01*
X132615000Y-112383500D01*
X133095000Y-112383500D01*
X132855000Y-112713500D01*
G37*
%TD*%
M02*
